<?xml version="1.0" encoding="utf-8"?>
<!-- Generator: Adobe Illustrator 27.5.0, SVG Export Plug-In . SVG Version: 6.00 Build 0)  -->
<svg version="1.1" xmlns="http://www.w3.org/2000/svg" xmlns:xlink="http://www.w3.org/1999/xlink" x="0px" y="0px"
	 viewBox="0 0 500 500" style="enable-background:new 0 0 500 500;" xml:space="preserve">
<g id="Floor">
	<g id="Floor_4_">
		<g>
			<ellipse id="Grass_7_" style="fill:#BA68C8;" cx="252.022" cy="370.506" rx="236.298" ry="114.386"/>
			<ellipse id="Grass_5_" style="opacity:0.75;fill:#FFFFFF;" cx="252.022" cy="370.506" rx="236.298" ry="114.386"/>
		</g>
		<g>
			<path style="fill:#FAFAFA;" d="M419.109,289.623C353.162,257.7,257.936,248.597,175.278,262.3l299.934,145.847
				C504.025,368.021,485.327,321.677,419.109,289.623z"/>
			<g>
				<path style="fill:#E0E0E0;" d="M415.342,287.865c-1.36-0.63-2.728-1.255-4.112-1.867l-93.609,45.519l3.975,1.933
					L415.342,287.865z"/>
				<path style="fill:#E0E0E0;" d="M230.156,288.985l3.975,1.933l66.516-32.344c-2.213-0.224-4.43-0.438-6.653-0.631
					L230.156,288.985z"/>
				<path style="fill:#E0E0E0;" d="M480.489,341.248c-0.55-1.011-1.122-2.02-1.731-3.025l-73.672,35.824l3.975,1.933
					L480.489,341.248z"/>
			</g>
		</g>
	</g>
</g>
<g id="Shadows">
	<path id="Shadow_3_" style="opacity:0.2;fill:#BA68C8;" d="M344.678,377.883c-2.744-1.22-7.852-3.553-15.635-1.535
		c-6.206,1.609-21.497,2.676-26.782,6.32c-7.953,5.483-9.327,10.097-18.807,18.227c-6.421,5.507-18.551,15.607-27.182,16.452
		c-4.521,0.443-8.686-0.379-12.787-1.572c8.349-16.809,1.071-35.658-21.862-48.899c-33.625-19.413-88.143-19.413-121.768,0
		c-33.625,19.414-33.625,50.889,0,70.303c20.931,12.084,49.955,16.642,76.998,13.682c7.201,4.973,27.162,16.736,40.549,18.664
		c11.469,1.652,20.474-2.131,29.517-9.113c2.985-2.305,17.912-15.469,17.912-15.469s4.378,1.01,8.88-0.584
		c5.102-1.807,7.695-6.078,11.244-9.906c9.34-10.075,17.803-18.844,29.379-26.206c4.456-2.834,10.029-6.567,13.079-8.924
		c4.313-3.332,2.396-6.995,0-8.62C331.708,386.014,352.549,381.384,344.678,377.883z"/>
	<path id="Shadow_2_" style="opacity:0.05;" d="M386.851,343.358c-3.645-0.19-7.974-0.345-10.37,1.991
		c-2.677,2.609-1.541,6.63,0.954,8.836c4.483,3.964,11.551,4.796,17.237,5.634c17.586,2.591,35.793,2.595,53.473,0.581
		c5.854-0.667,11.847-1.055,17.462-2.98c4.112-1.41,10.681-4.409,10.809-9.589c0.054-2.175-2.516-4.288-4.37-5.212
		c-6.43-3.204-12.933-3.691-20.055-3.36c-9.323,0.434-18.66,2.765-27.889,4.467c-7.298,1.346-14.212,1.337-21.605,0.843
		c-4.224-0.282-8.396-1.104-12.645-1.096C388.957,343.474,387.934,343.414,386.851,343.358z"/>
	<path id="Shadow_1_" style="opacity:0.05;" d="M294.751,297.011c2.587,0.946,5.027,2.077,7.657,3.339
		c4.379,2.102,8.36,4.932,12.831,6.914c7.252,3.216,15.257,4.973,23.186,3.83c4.279-0.617,8.286-1.55,12.048-3.76
		c3.532-2.075,4.561-6.792,1.77-9.905c-3.234-3.608-10.34-5.703-14.851-6.967c-5.026-1.408-10.061-2.286-15.186-3.201
		c-6.655-1.189-13.279-2.536-19.799-4.35c-3.547-0.987-7.12-1.94-10.539-3.321c-3.569-1.441-6.654-2.816-10.595-3.137
		c-4.492-0.366-12.513,1.206-12.47,7.1c0.017,2.407,2.443,4.519,4.321,5.859c4.768,3.402,11.42,4.775,17.008,6.175
		C291.76,295.995,293.279,296.473,294.751,297.011z"/>
</g>
<g id="Clouds">
	<g id="Clouds_2_">
		<path id="Cloud_2_" style="fill:#F5F5F5;" d="M417.163,24.11l8.38,4.838c-0.042-0.374-0.07-0.746-0.07-1.109v-2.428
			c0-4.32,3.033-6.071,6.775-3.911c1.515,0.875,2.909,2.261,4.038,3.883c0.613-5.432,4.875-7.456,10.052-4.467
			c5.597,3.232,10.135,11.091,10.135,17.555v3.632c0,1.674-0.31,3.084-0.858,4.208l6.961,4.019c2.076,1.198,3.758,4.112,3.758,6.508
			c0,2.397-1.682,3.368-3.758,2.17l-45.411-26.218c-2.075-1.198-3.758-4.112-3.758-6.509
			C413.405,23.883,415.087,22.912,417.163,24.11z"/>
		<path id="Cloud_1_" style="fill:#F5F5F5;" d="M370.295,41.445l6.571,3.794c-0.033-0.293-0.055-0.585-0.055-0.87v-1.904
			c0-3.388,2.378-4.761,5.312-3.067c1.188,0.686,2.281,1.773,3.166,3.045c0.48-4.26,3.823-5.847,7.882-3.503
			c4.389,2.534,7.947,8.697,7.947,13.765v2.848c0,1.313-0.243,2.418-0.673,3.299l5.458,3.151c1.627,0.94,2.947,3.224,2.947,5.104
			c0,1.879-1.319,2.641-2.947,1.701L370.295,48.25c-1.627-0.94-2.947-3.225-2.947-5.104
			C367.348,41.268,368.668,40.506,370.295,41.445z"/>
	</g>
</g>
<g id="Leaves">
	<g id="Leave_11_">
		<path style="fill:#BA68C8;" d="M76.683,413.94c-5.403,1.821-7.77,8.606-10.542,9.861c6.844,1.625,13.326,0.5,15.817-2.826
			C84.449,417.65,82.23,412.07,76.683,413.94z"/>
		<path style="opacity:0.3;fill:#FFFFFF;" d="M76.683,413.94c-5.403,1.821-7.77,8.606-10.542,9.861
			c6.844,1.625,13.326,0.5,15.817-2.826C84.449,417.65,82.23,412.07,76.683,413.94z"/>
		<path style="fill:#BA68C8;" d="M84.458,411.62c-0.474,0.494-0.838,1.075-1.225,1.637c-0.515,0.747-1.051,1.479-1.608,2.195
			c-0.93,1.195-1.971,2.293-3.146,3.249c-1.147,0.933-2.397,1.713-3.714,2.381c-1.373,0.696-2.787,1.168-4.232,1.676
			c-0.048,0.017-0.076,0.154-0.005,0.148c2.915-0.241,5.798-1.741,8.056-3.53c1.263-1.001,2.374-2.167,3.358-3.442
			c0.981-1.271,1.993-2.7,2.612-4.188C84.578,411.687,84.539,411.535,84.458,411.62z"/>
	</g>
	<g id="Leave_10_">
		<path style="fill:#BA68C8;" d="M295.801,459.853c-5.555,0.534-10.383-4.58-13.361-4.592c5.464-4.189,11.704-5.776,15.26-3.802
			C301.255,453.433,301.505,459.305,295.801,459.853z"/>
		<path style="opacity:0.3;fill:#FFFFFF;" d="M295.801,459.853c-5.555,0.534-10.383-4.58-13.361-4.592
			c5.464-4.189,11.704-5.776,15.26-3.802C301.255,453.433,301.505,459.305,295.801,459.853z"/>
		<path style="fill:#BA68C8;" d="M303.675,458.816c-0.621-0.252-1.178-0.625-1.749-0.972c-0.759-0.462-1.53-0.901-2.315-1.318
			c-1.309-0.696-2.678-1.26-4.11-1.644c-1.398-0.374-2.826-0.571-4.27-0.641c-1.505-0.073-2.956,0.071-4.451,0.195
			c-0.05,0.004-0.129-0.107-0.063-0.13c2.701-0.951,5.875-0.764,8.608-0.069c1.529,0.389,2.987,0.986,4.376,1.732
			c1.384,0.743,2.861,1.614,4.008,2.697C303.755,458.708,303.781,458.859,303.675,458.816z"/>
	</g>
	<g id="Leave_9_">
		<path style="fill:#BA68C8;" d="M119.981,437.878c4.287,3.573,11.158,2.07,13.625,3.739c-2.151-6.54-6.411-11.369-10.461-11.743
			C119.095,429.5,115.58,434.209,119.981,437.878z"/>
		<path style="opacity:0.3;fill:#FFFFFF;" d="M119.981,437.878c4.287,3.573,11.158,2.07,13.625,3.739
			c-2.151-6.54-6.411-11.369-10.461-11.743C119.095,429.5,115.58,434.209,119.981,437.878z"/>
		<path style="fill:#BA68C8;" d="M114.062,432.582c0.655,0.142,1.326,0.148,1.993,0.183c0.887,0.047,1.772,0.119,2.655,0.216
			c1.473,0.163,2.922,0.469,4.322,0.959c1.365,0.479,2.656,1.122,3.888,1.878c1.284,0.788,2.402,1.725,3.566,2.671
			c0.039,0.031,0.167-0.016,0.126-0.072c-1.694-2.308-4.422-3.943-7.071-4.91c-1.482-0.541-3.023-0.87-4.59-1.037
			c-1.562-0.167-3.273-0.279-4.83-0.032C114.057,432.448,113.95,432.558,114.062,432.582z"/>
	</g>
	<g id="Leave_8_">
		<path style="fill:#BA68C8;" d="M262.797,377.685c5.124,2.209,11.286-1.182,14.126-0.282c-3.919-5.66-9.374-9.081-13.363-8.29
			C259.57,369.904,257.535,375.417,262.797,377.685z"/>
		<path style="opacity:0.3;fill:#FFFFFF;" d="M262.797,377.685c5.124,2.209,11.286-1.182,14.126-0.282
			c-3.919-5.66-9.374-9.081-13.363-8.29C259.57,369.904,257.535,375.417,262.797,377.685z"/>
		<path style="fill:#BA68C8;" d="M255.618,374.288c0.669-0.05,1.313-0.234,1.963-0.39c0.864-0.207,1.733-0.389,2.607-0.546
			c1.459-0.262,2.935-0.38,4.416-0.307c1.445,0.072,2.866,0.321,4.261,0.697c1.455,0.391,2.793,0.973,4.177,1.549
			c0.046,0.019,0.155-0.063,0.1-0.105c-2.28-1.732-5.359-2.526-8.174-2.701c-1.575-0.098-3.146,0.024-4.696,0.309
			c-1.545,0.284-3.217,0.661-4.641,1.34C255.575,374.16,255.504,374.296,255.618,374.288z"/>
	</g>
	<g id="Leave_7_">
		<path style="fill:#BA68C8;" d="M110.418,380.041c-5.124,2.209-11.286-1.182-14.125-0.282c3.919-5.66,9.374-9.081,13.364-8.29
			C113.646,372.26,115.68,377.773,110.418,380.041z"/>
		<path style="opacity:0.3;fill:#FFFFFF;" d="M110.418,380.041c-5.124,2.209-11.286-1.182-14.125-0.282
			c3.919-5.66,9.374-9.081,13.364-8.29C113.646,372.26,115.68,377.773,110.418,380.041z"/>
		<path style="fill:#BA68C8;" d="M117.597,376.644c-0.669-0.05-1.313-0.234-1.963-0.39c-0.864-0.207-1.733-0.389-2.607-0.546
			c-1.459-0.262-2.935-0.38-4.416-0.307c-1.445,0.072-2.865,0.321-4.261,0.697c-1.455,0.391-2.793,0.973-4.177,1.548
			c-0.046,0.019-0.155-0.063-0.1-0.105c2.28-1.732,5.359-2.526,8.174-2.701c1.575-0.098,3.146,0.024,4.696,0.309
			c1.545,0.284,3.217,0.661,4.641,1.34C117.641,376.517,117.712,376.652,117.597,376.644z"/>
	</g>
	<g id="Leave_6_">
		<path style="fill:#BA68C8;" d="M53.625,364.36c-5.236,2.257-11.531-1.208-14.432-0.288c4.004-5.783,9.578-9.279,13.654-8.47
			C56.922,356.41,59.001,362.043,53.625,364.36z"/>
		<path style="opacity:0.3;fill:#FFFFFF;" d="M53.625,364.36c-5.236,2.257-11.531-1.208-14.432-0.288
			c4.004-5.783,9.578-9.279,13.654-8.47C56.922,356.41,59.001,362.043,53.625,364.36z"/>
		<path style="fill:#BA68C8;" d="M60.959,360.889c-0.683-0.051-1.342-0.239-2.006-0.399c-0.883-0.212-1.77-0.398-2.664-0.558
			c-1.49-0.268-2.999-0.389-4.512-0.314c-1.476,0.073-2.928,0.328-4.353,0.712c-1.487,0.4-2.853,0.994-4.268,1.582
			c-0.047,0.02-0.159-0.064-0.102-0.107c2.329-1.77,5.476-2.581,8.351-2.759c1.609-0.1,3.214,0.025,4.798,0.315
			c1.579,0.29,3.287,0.676,4.742,1.37C61.004,360.759,61.076,360.898,60.959,360.889z"/>
	</g>
</g>
<g id="Character_3">
	<g id="Character_8_">
		<path id="Arm_3_" style="fill:#F0F0F0;" d="M444.37,148.994c6.934,1.713,9.647,2.317,12.718,8.28
			c3.072,5.963,7.711,27.811,9.05,32.353c1.339,4.542,1.729,6.196,0.844,11.152c-0.923,5.163-4.437,14.256-5.969,19.255
			c-0.709,2.313-1.22,4.57-1.77,6.947c-0.574,2.478-1.769,4.71-2.678,7.088c-0.42,1.098-1.255,2.103-2.18,2.822
			c-0.609,0.474-1.399,0.488-1.977,0.933c-0.598,0.461-0.753,1.251-1.541,1.598c-0.876,0.386-1.846,0.069-2.615,0.473
			c-0.805,0.423-1.497,1.06-2.384,1.396c-0.799,0.303-1.385,0.41-2.012,1.036c-0.514,0.513-1.046,1.688-1.923,1.558
			c-0.983-0.146-1.096-1.11-1.107-1.939c-0.019-1.461,0.861-3.264,1.787-4.372c1.073-1.284,1.832-2.801,3.052-3.957
			c1.104-1.047,1.794-2.639,2.311-4.076c0.361-1.005,0.329-2.316-1.017-1.784c-1.587,0.627-3.302,2.028-5.148,1.617
			c-1.277-0.284-1.299-1.302-0.506-2.114c1.328-1.359,2.476-2.737,3.6-4.287c1.118-1.541,2.061-3.188,3.22-4.694
			c0.602-0.783,1.314-1.521,2.021-2.222c1.978-1.964,2.042-4.771,2.382-7.365c0.476-3.622,0.854-7.257,1.208-10.893
			c0.047-0.487,0.361-1.533,0.19-2.007c0-0.001-7.673-21.317-7.673-21.317L444.37,148.994z"/>
		<g id="Bottom_8_">
			<path style="fill:#E0E0E0;" d="M398.961,328.102c2.08-1.482,3.773-2.059,4.081-0.905c0.308,1.154-0.315,4.488-0.315,4.488
				l-1.108,3.062l-0.156,2.762c0,0-0.69,1.655-0.729,1.77c-0.038,0.116-2.078-4.532-2.078-4.532S396.058,329.585,398.961,328.102z"
				/>
			<path style="opacity:0.2;" d="M398.961,328.102c2.08-1.482,3.773-2.059,4.081-0.905c0.308,1.154-0.315,4.488-0.315,4.488
				l-1.108,3.062l-0.156,2.762c0,0-0.69,1.655-0.729,1.77c-0.038,0.116-2.078-4.532-2.078-4.532S396.058,329.585,398.961,328.102z"
				/>
			<g>
				<path id="XMLID_405_" style="fill:#E0E0E0;" d="M452.632,324.341c0,0-12.27-20.074-18.454-32.04
					c-4.571-8.845-4.947-10.538-5.911-16.236c-2.07-12.244-2.555-15.114-2.555-15.114l-4.981,24.319
					c0.503,2.688,1.528,8.008,1.44,11.107c-0.122,4.117-0.762,9.891-2.31,17.988c-2.463,12.877-4.701,19.84-4.701,19.84
					c-1.003,0.621-3.839,0.62-6.292,0.435c-3.401-0.257-6.98-1.598-6.98-1.598s-0.761-28.954-0.886-36.915
					c-0.149-9.556-0.183-13.305-0.255-18.553c-0.115-8.353-0.738-20.47,0.274-35.764c2.012-30.426,9.568-44.018,9.568-44.018
					l35.377-3.212c2.464,10.389,8.476,11.851,8.49,25.886c0.003,3.187-1.996,9.419-2.273,14.35
					c-0.898,15.993-3.478,41.064-3.478,41.064c3.706,3.651,6.394,6.922,8.703,15.113c1.402,4.972,5.801,20.819,7.119,25.272
					C459.085,317.519,452.632,324.341,452.632,324.341z"/>
				<path style="opacity:0.18;" d="M409.547,235.337c-4.649-2.814-5.533-9.379-2.455-18.613l-0.895-0.298
					c-3.301,9.904-2.164,16.945,3.175,19.901c-2.425,13.645-3.146,26.424-3.314,40.859c-0.187,16.16-0.376,43.898-0.46,56.937
					c0.305,0.069,0.62,0.135,0.941,0.196c0.084-12.955,0.274-40.883,0.462-57.122c0.247-21.322,1.69-39.006,8.109-61.254
					l-0.906-0.262C412.211,222.592,410.697,229.062,409.547,235.337z M447.224,222.23c0.628,1.588,2.992,3.764,4.48,3.764h0.029
					c0.423-0.008,1.585-0.624,2.118-1.094c0.092-0.469,0.211-1.101,0.292-1.562c-0.746,0.807-2.173,1.708-2.429,1.713H451.7
					c-0.991,0-3.066-1.824-3.599-3.168c-0.253-0.64-0.319-1.496-0.404-2.58c-0.092-1.183-0.207-2.657-0.625-4.368l-0.915,0.223
					c0.4,1.639,0.507,3.009,0.6,4.219C446.848,220.541,446.919,221.459,447.224,222.23z M437.617,278.474
					c-1.119-6.751-2.549-28.662-2.253-41.5c3.48-1.647,5.503-4.149,6.422-7.15c3.016-6.754,1.871-13.038-0.279-16.733l-0.816,0.475
					c1.992,3.422,3.068,9.212,0.404,15.497c-3.245,5.718-10.421,6.379-10.421,6.379l-4.962,25.51l2.555,15.114l-0.492-14.927
					l5.961-23.485c0.234-0.083,0.453-0.175,0.676-0.265c-0.255,12.945,1.163,34.533,2.275,41.24
					c1.042,6.279,15.446,33.618,19.953,42.065c0.245-0.198,0.495-0.397,0.754-0.595
					C452.834,311.532,438.616,284.491,437.617,278.474z M431.808,230.702c1.374-0.266,2.459-1.156,4.646-3.806
					c1.664-2.018,1.538-3.502,1.33-5.96c-0.076-0.902-0.163-1.925-0.189-3.195l-0.943,0.02c0.028,1.299,0.116,2.338,0.194,3.254
					c0.206,2.444,0.3,3.56-1.119,5.281c-2.021,2.45-2.978,3.263-4.097,3.48c-1.085,0.215-5.84-0.702-7.09-1.615
					c-0.721-0.53-1.788-6.851-2.363-12.404l-0.937,0.098c0.29,2.807,1.346,12.045,2.744,13.066c1.241,0.908,5.322,1.826,7.222,1.826
					C431.444,230.747,431.649,230.732,431.808,230.702z"/>
			</g>
			<g>
				<path style="fill:#E0E0E0;" d="M378.592,346.872c-0.584-0.089-0.626,2.108-0.47,2.846c0.156,0.738,2.39,3.285,6.59,4.414
					c4.201,1.129,10.74,0.563,13.269,0.624c2.529,0.061,4.911,1.372,8.405,2.027c3.106,0.583,7.387,0.046,8.942-1.269
					c0.763-0.645,0.727-1.612,0.75-2.297c0.056-1.624-0.076-1.961-0.271-1.96L378.592,346.872z"/>
				<path id="XMLID_402_" style="fill:#E0E0E0;" d="M416.091,347.614c0.205,1.616,0.107,3.156-0.237,4.759
					c-0.604,1.175-2.268,1.738-3.423,2.002c-3.047,0.695-5.309,0.38-8.563-0.472c-1.95-0.51-4.076-1.06-6.454-1.08
					c-2.613-0.023-6.227,0.194-8.808-0.23c-2.205-0.363-4.37-0.75-6.36-1.756c-1.68-0.85-3.302-1.907-3.67-3.665
					c0.079-3.165,1.837-4.568,3.701-5.448c1.968-0.93,4.443-0.822,6.634-0.877c2.713-0.069,3.72,0.158,6.484-0.413
					c1.454-0.3,3.465,0.393,4.219-1.152c0.89-1.825,0.423-5.4,0.814-7.351c0.064-0.319,0.167-0.67,0.45-0.829
					c0.409-0.229,0.9,0.076,1.277,0.353c1.793,1.318,3.707,1.958,5.89,2.349c5.816,1.041,7.516-0.945,7.516-0.945l0.347-1.205
					c0,0,1.266,0.278,0.666,3.014c-0.533,2.429-0.743,3.581-0.976,6.881C415.384,344.554,415.888,346.017,416.091,347.614z"/>
				<path id="XMLID_346_" style="opacity:0.1;" d="M416.091,347.614c0.205,1.616,0.107,3.156-0.237,4.759
					c-0.604,1.175-2.268,1.738-3.423,2.002c-3.047,0.695-5.309,0.38-8.563-0.472c-1.95-0.51-4.076-1.06-6.454-1.08
					c-2.613-0.023-6.227,0.194-8.808-0.23c-2.205-0.363-4.37-0.75-6.36-1.756c-1.68-0.85-3.302-1.907-3.67-3.665
					c0.079-3.165,1.837-4.568,3.701-5.448c1.968-0.93,4.443-0.822,6.634-0.877c2.713-0.069,3.72,0.158,6.484-0.413
					c1.454-0.3,3.465,0.393,4.219-1.152c0.89-1.825,0.423-5.4,0.814-7.351c0.064-0.319,0.167-0.67,0.45-0.829
					c0.409-0.229,0.9,0.076,1.277,0.353c1.793,1.318,3.707,1.958,5.89,2.349c5.816,1.041,7.516-0.945,7.516-0.945l0.347-1.205
					c0,0,1.266,0.278,0.666,3.014c-0.533,2.429-0.743,3.581-0.976,6.881C415.384,344.554,415.888,346.017,416.091,347.614z"/>
				<path style="fill:#E0E0E0;" d="M389.93,340.833c-2.113,0.834-1.689,4.516-1.689,4.516s3.765,0.847,6.843,0.224
					c3.92-0.793,5.677-3.34,5.743-6.53c0.066-3.19-1.964-7.06-2.506-8.337c-0.414-0.974-0.285-2.009,0.64-2.604
					c-1.885,1.131-2.027,2.414-1.499,3.962c0.529,1.549,1.388,4.692,0.991,5.929C398.057,339.23,394.893,340.65,389.93,340.833z"/>
				<path style="opacity:0.1;" d="M389.93,340.833c-2.113,0.834-1.689,4.516-1.689,4.516s3.765,0.847,6.843,0.224
					c3.92-0.793,5.677-3.34,5.743-6.53c0.066-3.19-1.964-7.06-2.506-8.337c-0.414-0.974-0.285-2.009,0.64-2.604
					c-1.885,1.131-2.027,2.414-1.499,3.962c0.529,1.549,1.388,4.692,0.991,5.929C398.057,339.23,394.893,340.65,389.93,340.833z"/>
			</g>
			<g>
				<path style="fill:#E0E0E0;" d="M452.232,323.168c-1.272,1.694-2.681,2.88,0.717,5.272c2.621,1.845,2.743,3.279,3.52,5.184
					c0.777,1.905,0.495,5.706,0.495,5.706s4.79-6.813,3.579-11.321C459.333,323.501,452.232,323.168,452.232,323.168z"/>
				<path style="opacity:0.1;" d="M452.232,323.168c-1.272,1.694-2.681,2.88,0.717,5.272c2.621,1.845,2.743,3.279,3.52,5.184
					c0.777,1.905,0.495,5.706,0.495,5.706s4.79-6.813,3.579-11.321C459.333,323.501,452.232,323.168,452.232,323.168z"/>
				<path style="fill:#E0E0E0;" d="M467.115,319.632c0.82,1.273,2.782,2.401,4.405,3.473c1.143,0.754,2.321,1.496,2.628,2.834
					c0.034,0.149-0.713,0.956-0.698,1.107c0.064,0.647-0.031,1.308-0.127,1.955c-0.332,2.248-1.61,3.875-1.943,6.124
					c-0.135,0.918-0.287,1.762-0.565,2.637c-0.312,0.983-0.257,2.182-0.353,3.205c-0.106,1.122-0.211,2.245-0.305,3.368
					c-0.037,0.44-0.177,1-0.096,1.44c0.088,0.474-7.669,4.104-10.794,5.492c-0.181,0.083-0.361,0.145-0.563,0.216
					c-2.824,0.857-5.607-0.714-5.607-0.714c-6.075-2.406-5.629-4.62-5.629-4.62s-0.117-2.572,3.047-4.212
					c0.399-0.206,0.795-0.381,1.187-0.503c0.023-0.009,0.045-0.018,0.057-0.028c2.628-0.87,4.78-0.104,4.78-0.104
					s0.357-0.671,0.503-2.815c0.138-2.034,0.253-2.283,0.195-4.322c-0.037-1.29-0.997-3.523-1.718-4.586
					c-1.249-1.841-2.596-4.157-3.449-5.472c-0.96-1.146-0.974-4.331,4.25-7.841c4.999-3.358,8.57-2.525,9.222-1.042
					C465.54,315.225,466.278,318.334,467.115,319.632z"/>
				<path style="opacity:0.1;" d="M467.115,319.632c0.82,1.273,2.782,2.401,4.405,3.473c1.143,0.754,2.321,1.496,2.628,2.834
					c0.034,0.149-0.713,0.956-0.698,1.107c0.064,0.647-0.031,1.308-0.127,1.955c-0.332,2.248-1.61,3.875-1.943,6.124
					c-0.135,0.918-0.287,1.762-0.565,2.637c-0.312,0.983-0.257,2.182-0.353,3.205c-0.106,1.122-0.211,2.245-0.305,3.368
					c-0.037,0.44-0.177,1-0.096,1.44c0.088,0.474-7.669,4.104-10.794,5.492c-0.181,0.083-0.361,0.145-0.563,0.216
					c-2.824,0.857-5.607-0.714-5.607-0.714c-6.075-2.406-5.629-4.62-5.629-4.62s-0.117-2.572,3.047-4.212
					c0.399-0.206,0.795-0.381,1.187-0.503c0.023-0.009,0.045-0.018,0.057-0.028c2.628-0.87,4.78-0.104,4.78-0.104
					s0.357-0.671,0.503-2.815c0.138-2.034,0.253-2.283,0.195-4.322c-0.037-1.29-0.997-3.523-1.718-4.586
					c-1.249-1.841-2.596-4.157-3.449-5.472c-0.96-1.146-0.974-4.331,4.25-7.841c4.999-3.358,8.57-2.525,9.222-1.042
					C465.54,315.225,466.278,318.334,467.115,319.632z"/>
				<path style="opacity:0.1;" d="M453.224,343.437c0.464-1.024,0.847-1.499,2.238-2.365c0.662,0.092,1.075,0.231,1.075,0.231
					C455.903,341.892,453.663,342.688,453.224,343.437z"/>
				<g>
					<path id="XMLID_396_" style="fill:#E0E0E0;" d="M474.85,327.273c1.351,0.617,0.154,2.798-1.591,6.05
						c-1.735,3.234-2.113,5.177-1.875,8.164c0.239,2.987-0.505,4.423-1.823,5.421c-1.319,0.998-10.991,4.91-10.991,4.91
						s3.34-3.387,4.056-9.921c0.716-6.534,1.462-10.722,4.804-13.482C470.774,325.655,474.85,327.273,474.85,327.273z"/>
				</g>
				<g style="opacity:0.18;">
					<path id="XMLID_433_" d="M474.85,327.273c1.351,0.617,0.154,2.798-1.591,6.05c-1.735,3.234-2.113,5.177-1.875,8.164
						c0.239,2.987-0.505,4.423-1.823,5.421c-1.319,0.998-10.991,4.91-10.991,4.91s3.34-3.387,4.056-9.921
						c0.716-6.534,1.462-10.722,4.804-13.482C470.774,325.655,474.85,327.273,474.85,327.273z"/>
				</g>
				<path id="XMLID_333_" style="fill:#E0E0E0;" d="M447.464,346.147c0.118,1.279,3.698,3.986,8.011,4.068
					c4.45,0.084,4.714-0.835,5.532-5.873c0.818-5.039,1.485-12.038,3.759-14.982c2.274-2.945,5.207-4.64,9.38-3.42
					c0.474,0.248,1.742,1.587,1.215,2.791c0,0,0.04-0.961-1.672-1.511c-1.468-0.472-3.236-0.479-5.767,1.579
					c-2.954,2.402-3.768,8.218-4.243,13.222c-0.475,5.005-2.182,9.77-6.343,10.094c-4.161,0.324-7.333-0.993-9.909-3.39
					C447.034,347.362,447.464,346.147,447.464,346.147z"/>
			</g>
		</g>
		<g id="Top_11_">
			<g id="XMLID_322_">
				<path id="XMLID_332_" style="fill:#E0E0E0;" d="M412.12,117.244c-1.246-1.442-1.248-3.732-0.553-5.507
					c0.695-1.775,2.147-3.653,6.386-5.847c5.035-2.605,18.877-4.457,25.724,4.596c0.987,1.305-12.635,26.906-11.962,32.216
					c-3.531-3.714-15.193-16.775-15.193-16.775c-2.763-1.176-4.433-2.174-5.016-4.78C411.34,120.405,411.375,118.506,412.12,117.244
					z"/>
				<g id="XMLID_326_">
					<path id="XMLID_329_" style="fill:#E0E0E0;" d="M414.194,124.486c0,0-3.729,6.096-3.317,6.593
						c0.412,0.497,2.763,1.827,2.763,1.827L414.194,124.486z"/>
					<path id="XMLID_327_" style="fill:#F0F0F0;" d="M418.83,113.375c-2.502,1.182-4.673,3.102-5.451,8.596
						c-0.203,1.436,0.917,3.399,0.408,5.309c-2.179,8.177,0.407,14.995,1.998,16.5c1.074,1.015,6.69,1.466,9.637,0.646
						c3.687-1.027,11.695-4.644,15.515-10.407c4.493-6.78,5.544-15.896,0.54-19.556C434.436,109.312,421.501,112.113,418.83,113.375
						z"/>
					<path style="fill:#F0F0F0;" d="M437.986,137.884l1.459,10.101l0,0c2.253,0.483,2.468,3.15,1.347,5.171l0.522,2.839
						l-15.404,2.828l-1.726-14.124L437.986,137.884z"/>
					<path style="fill:#E0E0E0;" d="M416.084,143.986c1.306,0.725,4.187,1.261,8.1,0.715l-0.23-1.998c0,0-1.658,0.656-3.819,1.095
						C417.987,144.232,416.107,143.989,416.084,143.986z"/>
				</g>
				<g>
					<path id="XMLID_323_" style="fill:#E0E0E0;" d="M415.128,116.307c-0.138,3.562,2.096,4.683,3.687,5.385
						c-0.57,1.03-0.879,3.06-0.654,4.198c0.357,1.805,1.043,3.284,2.819,3.881c1.088,0.365,1.408-0.114,1.795-0.971
						c0.552-1.219,1.243-3.09,3.861-2.73c3.002,0.413,3.793,4.932,2.044,7.892c-0.771,1.305-2.048,2.201-3.383,2.277
						c-1.196,0.068-2.043-0.964-2.043-0.964s0.198,3.947,5.271,6.283c0,0,5.119,2.881,10.368,1.331
						c1.962-2.337,4.281-4.76,6.677-8.22c5.538-7.998,6.641-22.643-2.793-25.269c-0.45-0.125-8.991-1.318-13.157-0.415
						C416.841,111.755,415.151,115.69,415.128,116.307z"/>
				</g>
			</g>
			<g id="XMLID_305_">
				<path id="XMLID_321_" style="fill:#E0E0E0;" d="M451.559,156.242c-1.379-4.497-5.949-6.87-7.341-7.274
					c-1.392-0.404-4.772-0.983-4.772-0.983c0.78,1.785-0.54,2.957-2.847,3.494c-2.979,0.693-7.505,0.772-10.587-1.277l-1.264-0.781
					c0,0-7.753,1.978-9.946,2.995c-0.67,0.311-4.376,1.561-10.217,14.66c-2.497,5.601-1.749,11.294,2.832,15.331
					c0.259,3.553,0.586,11.07,0.586,11.07c-1.906,11.803-3.403,20.662-3.403,20.662s2.761,7.254,24.465,7.177
					c16.809-0.059,25.049-8.138,25.049-8.138c-0.2-4.137-6.459-18.6-5.82-23.438C449.297,182.647,455.769,169.973,451.559,156.242z"
					/>
			</g>
			<g id="XMLID_456_" style="opacity:0.1;">
				<path id="XMLID_457_" d="M451.559,156.242c-1.379-4.497-5.949-6.87-7.341-7.274c-1.392-0.404-4.772-0.983-4.772-0.983
					c0.78,1.785-0.54,2.957-2.847,3.494c-2.979,0.693-7.505,0.772-10.587-1.277l-1.264-0.781c0,0-7.753,1.978-9.946,2.995
					c-0.67,0.311-4.376,1.561-10.217,14.66c-2.497,5.601-1.749,11.294,2.832,15.331c0.259,3.553,0.586,11.07,0.586,11.07
					c-1.906,11.803-3.403,20.662-3.403,20.662s2.761,7.254,24.465,7.177c16.809-0.059,25.049-8.138,25.049-8.138
					c-0.2-4.137-6.459-18.6-5.82-23.438C449.297,182.647,455.769,169.973,451.559,156.242z"/>
			</g>
			<g>
				<g id="Device_2">
					<path id="XMLID_651_" style="fill:#EBEBEB;" d="M375.987,169.502l0.001,0.001c-0.331-0.174-0.673-0.521-0.764-0.776
						l-8.451-23.481c-0.091-0.255,0.031-0.527,0.271-0.608l11.223-6.235c0.234-0.138,0.574-0.232,0.905-0.058l0,0
						c0.331,0.174,0.778,0.407,0.869,0.662l8.476,23.82c0.091,0.255-0.031,0.527-0.271,0.609l-11.223,6.235
						C376.782,169.751,376.319,169.675,375.987,169.502z"/>
					<path id="XMLID_3652_" style="opacity:0.2;" d="M375.987,169.502l0.001,0.001c-0.331-0.174-0.673-0.521-0.764-0.776
						l-8.451-23.481c-0.091-0.255,0.031-0.527,0.271-0.608l11.223-6.235c0.241-0.138,0.574-0.232,0.905-0.058l0,0
						c0.331,0.174,0.778,0.407,0.869,0.662l8.476,23.82c0.091,0.255-0.031,0.527-0.271,0.609l-11.223,6.235
						C376.782,169.751,376.319,169.675,375.987,169.502z"/>
					<path style="fill:#EBEBEB;" d="M376.944,169.691c-0.255,0.043-0.657-0.034-0.957-0.19l0,0.001
						c-0.33-0.174-0.673-0.518-0.764-0.778l-8.45-23.48c-0.046-0.127-0.036-0.258,0.008-0.365l1.179,0.289
						c-0.05,0.105-0.06,0.236-0.016,0.369l8.475,23.819C376.504,169.582,376.726,169.717,376.944,169.691z"/>
					<path style="opacity:0.4;" d="M376.944,169.691c-0.255,0.043-0.657-0.034-0.957-0.19l0,0.001
						c-0.33-0.174-0.673-0.518-0.764-0.778l-8.45-23.48c-0.046-0.127-0.036-0.258,0.008-0.365l1.179,0.289
						c-0.05,0.105-0.06,0.236-0.016,0.369l8.475,23.819C376.504,169.582,376.726,169.717,376.944,169.691z"/>
					<path id="XMLID_650_" style="fill:#EBEBEB;" d="M367.947,145.535l8.476,23.82c0.091,0.255,0.359,0.396,0.6,0.315l11.223-6.235
						c0.241-0.081,0.362-0.354,0.271-0.609l-8.476-23.82c-0.091-0.255-0.359-0.396-0.6-0.315l-11.223,6.235
						C367.978,145.007,367.857,145.28,367.947,145.535z"/>
					<path id="XMLID_649_" style="opacity:0.3;" d="M367.947,145.535l8.476,23.82c0.091,0.255,0.359,0.396,0.6,0.315l11.223-6.235
						c0.241-0.081,0.362-0.354,0.271-0.609l-8.476-23.82c-0.091-0.255-0.359-0.396-0.6-0.315l-11.223,6.235
						C367.978,145.007,367.857,145.28,367.947,145.535z"/>
					<path id="XMLID_648_" style="fill:#FFFFFF;" d="M369.522,146.9l9.989-5.583c0.206-0.07,0.436,0.051,0.514,0.27l6.82,19.198
						c0.078,0.218-0.026,0.452-0.233,0.521l-9.949,5.712c-0.206,0.07-0.436-0.051-0.514-0.27l-6.86-19.327
						C369.212,147.204,369.316,146.97,369.522,146.9z"/>
					<path id="XMLID_454_" style="fill:#E0E0E0;" d="M373.566,142.551c0.149-0.083,0.343-0.022,0.433,0.135
						c0.091,0.157,0.043,0.351-0.105,0.434c-0.149,0.082-0.343,0.022-0.433-0.135C373.37,142.828,373.417,142.633,373.566,142.551z"
						/>
					<g id="XMLID_440_">
						<path id="XMLID_452_" style="fill:#E0E0E0;" d="M373.118,143.863c0.554-0.291,1.521-0.849,2.058-1.153
							c0.091-0.052,0.207-0.02,0.26,0.071c0.052,0.091,0.02,0.207-0.072,0.258l-2.066,1.147c-0.092,0.051-0.209,0.018-0.262-0.073
							C372.983,144.022,373.023,143.913,373.118,143.863z"/>
						<path id="XMLID_446_" style="fill:#E0E0E0;" d="M372.596,144.153c0.084-0.046,0.193-0.012,0.243,0.076
							c0.051,0.088,0.024,0.197-0.059,0.244c-0.083,0.046-0.192,0.012-0.243-0.076C372.486,144.309,372.512,144.2,372.596,144.153z"
							/>
					</g>
					<path id="XMLID_437_" style="fill:#E0E0E0;" d="M382.347,164.671c0.322-0.109,0.682,0.08,0.804,0.422
						c0.122,0.342-0.041,0.707-0.363,0.815c-0.322,0.109-0.682-0.08-0.804-0.422C381.862,165.145,382.025,164.78,382.347,164.671z"
						/>
				</g>
				<g id="XMLID_434_">
					<g id="XMLID_435_">
						<path id="XMLID_436_" style="fill:#F0F0F0;" d="M417.211,151.54c-6.532,1.594-10.548,1.471-14.964,9.969
							c-5.04,9.699-12.038,23.039-13.266,25.116c-1.709,2.889-2.027,6.9-0.551,9.554c1.378,2.478,6.139,5.462,11.095-0.137
							c5.894-6.658,15.273-21.814,15.273-21.814S424.114,161.937,417.211,151.54z"/>
					</g>
				</g>
				<path id="XMLID_390_" style="fill:#F0F0F0;" d="M392.748,199.668c-4.742-0.575-9.878-8.21-13.005-13.133
					c-5.268-8.291-6.394-9.879-8.851-14.01c-1.87-3.144-3.745-6.478-4.177-7.235c-0.411-0.719-0.531-1.575-0.543-2.391
					c-0.016-1.085,0.021-1.395-0.167-2.464c-0.113-0.642-0.348-1.276-0.291-1.925c0.055-0.62,0.371-1.187,0.479-1.8
					c0.132-0.747-0.053-1.51-0.082-2.268c-0.019-0.499,0.119-0.999,0.293-1.474c0.546-1.491,1.887-3.501,1.887-3.501l3.896,10.821
					c0.307,0.853,1.607,2.196,2.269,1.076c0.173-0.293,0.229-0.641,0.262-0.98c0.107-1.094,0.015-2.207,0.217-3.288
					c0.125-0.666,0.384-1.33,0.819-1.857c0.282-0.342,1.122-1.132,1.591-0.721c0.141,0.124,0.21,0.31,0.249,0.493
					c0.108,0.514-0.063,1.002,0.004,1.498c0.087,0.637,0.315,1.275,0.437,1.909c0.249,1.291,0.401,2.6,0.457,3.913
					c0.041,0.967,0.029,1.938,0.141,2.899c0.136,1.171,0.488,2.173,1.157,3.132c1.231,1.766,15.507,15.631,15.507,15.631
					L392.748,199.668z"/>
			</g>
		</g>
	</g>
</g>
<g id="Character_2">
	<g id="Character_2_">
		<g id="Bottom_2_">
			<g id="XMLID_21_">
				<g>
					<path style="fill:#F0F0F0;" d="M330.34,150.576l-28.31,6.301l8.438,47.721c0,0-6.647,7.171-10.251,15.229
						c-2.615,5.847-11.22,29.023-12.674,32.706c-1.453,3.683-2.723,6.9-2.723,6.9c-0.17,1.17,1.559,4.333,4.409,5.147
						c2.85,0.813,7.03,1.417,7.403,0.341c0,0,0.668-3.608,4.319-8.736c3.651-5.128,28.187-41.688,29.5-44.113
						c1.969-3.639,4.221-6.746,3.897-18.4C334.02,181.842,331.809,156.479,330.34,150.576z"/>
					<path style="opacity:0.15;" d="M302.328,215.736c-0.761,1.316-1.484,2.688-2.111,4.091c-0.633,1.415-1.646,3.606-2.701,6.605
						c0.437,4.021,1.124,9.581,1.372,10.682l2.179-0.014c0.469,4.846,2.564,12.048,3.178,14.304l7.679-11.357
						C310.102,231.443,304.129,219.879,302.328,215.736z"/>
				</g>
				<g>
					<path style="fill:#E0E0E0;" d="M331.994,157.113c0,0,0.708,6.089,2.286,21.392c1.578,15.303,2.76,21.623-1.622,30.979
						c-4.382,9.355-11.655,19.772-13.992,22.917c0,0-12.006-0.663-19.749-11.884l6.199-13.822l-13.349-44.554L331.994,157.113z"/>
					<path style="opacity:0.18;" d="M327.434,161.251c0,0,2.262,4.981-1.883,10.792c-3.103,4.351-6.506,6.298-6.506,6.298
						s4.401,25.727,5.238,30.822c0.994,6.049,0.364,14.506,0.364,14.506l-8.766-46.99L327.434,161.251z"/>
				</g>
				<g id="XMLID_22_">
					<path id="XMLID_25_" style="fill:#E0E0E0;" d="M281.274,264.92c-0.515,0.79-0.733,1.628-0.733,2.517
						c0,0.693,0.634,2.675,2.267,4.31c1.18,1.182,2.191,2.959,2.862,5.263c0.554,1.9,0.508,5.694,2.633,8.538
						c2.125,2.844,8.081,6.417,15.856,4.371c3.815-1.004,4.354-3.203,3.961-4.254L281.274,264.92z"/>
					<path id="XMLID_24_" style="fill:#E0E0E0;" d="M297.838,262.249c-0.4,2.671-1.469,7.175,3.531,14.074
						c2.466,3.402,7.639,5.233,6.751,9.341c-2.061,2.985-6.125,3.848-10.834,3.167c-3.021-0.437-5.17-1.792-6.997-3.509
						c-1.927-1.811-1.86-3.626-2.964-7.161c-0.769-2.463-1.362-4.176-2.31-5.889c-1.024-1.851-4.188-3.591-3.743-7.353
						c0.124-1.051,1.607-2.141,2.181-3.967c0.744-2.363,1.229-3.463,2.071-3.31l-0.239,0.606c0.764,0.77,2.783,1.712,3.236,2.552
						c0.748,1.389,0.442,3.313,0.956,3.318c0.515,0.005,0.71-2.663,1.609-3.034C295.06,259.447,297.838,262.249,297.838,262.249z"/>
					<path id="XMLID_23_" style="opacity:0.1;" d="M297.838,262.249c-0.4,2.671-1.469,7.175,3.531,14.074
						c2.466,3.402,7.639,5.233,6.751,9.341c-2.061,2.985-6.125,3.848-10.834,3.167c-3.021-0.437-5.17-1.792-6.997-3.509
						c-1.927-1.811-1.86-3.626-2.964-7.161c-0.769-2.463-1.362-4.176-2.31-5.889c-1.024-1.851-4.188-3.591-3.743-7.353
						c0.124-1.051,1.607-2.141,2.181-3.967c0.744-2.363,1.229-3.463,2.071-3.31l-0.239,0.606c0.764,0.77,2.783,1.712,3.236,2.552
						c0.748,1.389,0.442,3.313,0.956,3.318c0.515,0.005,0.71-2.663,1.609-3.034C295.06,259.447,297.838,262.249,297.838,262.249z"/>
					<path style="opacity:0.2;" d="M303.046,278.152c-0.618-0.569-1.198-1.169-1.676-1.829c-5-6.899-3.932-11.403-3.531-14.074
						c0,0-2.778-2.802-6.749-1.164c-0.9,0.371-1.094,3.039-1.609,3.034c0,5.903,4.122,13.088,5.724,15.134
						C298.027,277.559,301.622,277.742,303.046,278.152z"/>
					<g>
						<path style="fill:#E6E6E6;" d="M289.81,267.33c2.502-1.693,5.722-1.315,7.673-0.642c0.127,0.182,0.193,0.664,0.105,1.077
							c-1.996-0.649-4.754-0.785-7.155,0.569C289.724,268.589,289.241,267.67,289.81,267.33z"/>
						<path style="fill:#E6E6E6;" d="M290.943,271.499c2.502-1.693,5.466-1.307,7.417-0.633c0.127,0.182,0.353,0.554,0.439,1.068
							c-1.996-0.649-4.833-0.785-7.234,0.569C290.857,272.759,290.374,271.84,290.943,271.499z"/>
						<path style="fill:#E6E6E6;" d="M292.664,275.252c2.427-1.798,5.331-1.636,7.309-1.047c0.134,0.177,0.392,0.473,0.656,1.049
							c-2.022-0.563-4.96-0.481-7.301,0.974C292.632,276.514,292.11,275.616,292.664,275.252z"/>
						<path style="fill:#E6E6E6;" d="M294.979,278.855c2.427-1.798,5.636-1.723,7.613-1.133c0.193,0.142,0.417,0.249,0.89,0.825
							c-2.022-0.563-5.498-0.17-7.84,1.285C294.946,280.117,294.425,279.22,294.979,278.855z"/>
					</g>
				</g>
			</g>
			<g>
				<path style="fill:#F0F0F0;" d="M328.04,278.38c-0.632-6.029-4.742-41.404-5.668-59.253c-2.421-20.699-8.102-41.859-8.102-41.859
					s4.549-2.288,8.919-8.028c6.359-8.354,6.523-15.605,6.523-15.605l-3.45-0.383l-37.519-0.054
					c-0.149,6.194-0.748,14.873-0.24,22.928c1.043,16.521,15.775,46.303,15.775,46.303c-0.247,2.264-2.289,11.82-0.328,20.325
					c3.093,13.419,10.184,30.458,11.651,37.713c0.803,3.97,0,0,0,0l1.241,6.137c4.854,0.914,9.384,0.905,13.566-1.88
					C330.409,284.726,328.453,282.317,328.04,278.38z"/>
				<g>
					<path style="fill:#E0E0E0;" d="M287.943,151.385c-0.904,6.915-1.629,12.612-1.752,17.714
						c-0.123,5.102,1.033,12.123,3.086,19.262c2.052,7.138,8.142,24.447,8.916,26.967c0.773,2.52,2.255,18.93,2.255,18.93
						s14.522,3.808,24.611-2.225c0,0-0.717-16.419-1.45-20.606c-0.733-4.188-7.727-34.746-7.727-34.746s16.694-5.642,16.112-23.279
						L287.943,151.385z"/>
				</g>
				<g id="XMLID_17_">
					<path id="XMLID_20_" style="fill:#E0E0E0;" d="M314.524,290.335c0,0-0.214,2.354,0.124,2.994
						c0.338,0.64,2.223,1.377,4.227,2.189c1.617,0.655,2.768,0.859,4.613,3.849c0.935,1.516,2.909,4.294,6.162,6.073
						c3.383,1.851,7.896,1.789,12.003,0.734c4.708-1.209,5.862-2.354,5.757-4.794L314.524,290.335z"/>
					<path id="XMLID_19_" style="fill:#E0E0E0;" d="M327.473,279.809c0.754-0.016,1.425,0.462,1.674,1.173
						c0.983,2.801,3.552,6.615,7.023,9.811c3.895,3.585,6.982,3.376,10.242,6.521c0.903,0.871,1.312,2.731,0.997,4.066
						c-0.661,1.956-4.855,3.569-7.842,3.887c-4.975,0.529-7.345-0.207-9.765-1.524c-5.034-2.739-5.364-6.801-8.434-8.572
						c-1.77-1.021-5.816-2.155-6.837-3.889c-1.003-3.712,0.484-4.821,0.269-7.508c-0.255-3.192,0.265-3.557,0.717-3.7l0.335,1.637
						c1.188,0.054,2.526,0.251,3.726,1.045c1.201,0.794,1.658,3.426,2.135,3.179c0.348-0.181-0.054-1.692-0.26-2.867
						c-0.123-0.701,0.171-1.409,0.756-1.814C323.891,280.091,326.083,279.837,327.473,279.809z"/>
					<path id="XMLID_18_" style="opacity:0.1;" d="M327.473,279.809c0.754-0.016,1.425,0.462,1.674,1.173
						c0.983,2.801,3.552,6.615,7.023,9.811c3.895,3.585,6.982,3.376,10.242,6.521c0.903,0.871,1.312,2.731,0.997,4.066
						c-0.661,1.956-4.855,3.569-7.842,3.887c-4.975,0.529-7.345-0.207-9.765-1.524c-5.034-2.739-5.364-6.801-8.434-8.572
						c-1.77-1.021-5.816-2.155-6.837-3.889c-1.003-3.712,0.484-4.821,0.269-7.508c-0.255-3.192,0.265-3.557,0.717-3.7l0.335,1.637
						c1.188,0.054,2.526,0.251,3.726,1.045c1.201,0.794,1.658,3.426,2.135,3.179c0.348-0.181-0.054-1.692-0.26-2.867
						c-0.123-0.701,0.171-1.409,0.756-1.814C323.891,280.091,326.083,279.837,327.473,279.809z"/>
					<path style="opacity:0.2;" d="M331.786,297.22c3.706-3.549,7.099-3.581,8.921-3.398c-1.419-0.695-2.906-1.529-4.536-3.029
						c-3.471-3.195-6.04-7.009-7.023-9.81c-0.25-0.711-0.921-1.189-1.674-1.173c-1.39,0.029-3.582,0.282-5.262,1.445
						c-0.585,0.405-0.879,1.114-0.756,1.814c0.206,1.175,0.607,2.686,0.259,2.867C323.186,289.952,326.862,293.62,331.786,297.22z"
						/>
					<g>
						<path style="fill:#E6E6E6;" d="M322.503,288.185c2.568-3.551,8.048-3.526,8.886-2.938c0.467,0.467,0.616,0.879,0.616,0.879
							c-2.063-0.555-6.115-0.086-8.573,2.789C322.853,289.398,322.085,288.7,322.503,288.185z"/>
						<path style="fill:#E6E6E6;" d="M324.898,291.007c2.568-3.551,7.807-3.526,8.644-2.938c0.467,0.467,0.76,0.879,0.76,0.879
							c-2.063-0.555-6.017-0.086-8.475,2.789C325.249,292.22,324.481,291.522,324.898,291.007z"/>
						<path style="fill:#E6E6E6;" d="M327.624,294.049c2.567-3.551,7.894-3.677,8.732-3.089c0.512,0.442,1.007,0.837,1.007,0.837
							c-2.063-0.555-6.352,0.107-8.81,2.982C327.974,295.262,327.206,294.564,327.624,294.049z"/>
						<path style="fill:#E6E6E6;" d="M331.258,296.848c2.567-3.551,8.24-3.797,9.077-3.209c0.632,0.234,1.573,0.759,1.573,0.759
							c-2.063-0.555-7.263,0.306-9.721,3.181C331.608,298.061,330.84,297.363,331.258,296.848z"/>
					</g>
				</g>
			</g>
		</g>
		<g id="Top_2_">
			<path style="fill:#F0F0F0;" d="M325.319,98.532c11.068,2.065,12.14,5.971,13.72,14.321c1.651,8.722,3.052,25.104,3.052,25.104
				s5.267,20.018,6.573,22.341c2.193,3.903,5.419,3.979,8.789,8.849c2.373,3.43,5.296,5.671,2.137,5.998
				c-1.578,0.163-3.47-2.057-4.648-2.872c-0.521-0.36-1.645-1.196-2.323-0.789c-0.651,0.391-0.47,1.62-0.338,2.23
				c0.458,2.128,1.629,4.108,2.739,5.949c1.45,2.404,4.389,5.373,3.995,8.419c-0.439,3.388-3.186-0.241-4.654-0.621
				c-1.434-0.371-2.752-0.162-4.089-1.128c-0.532-0.384-0.926-1.182-1.526-1.439c-0.36-0.154-0.88-0.111-1.268-0.163
				c-4.649-0.618-6.572-6.304-7.636-10.117c-0.655-2.345-1.066-4.765-1.764-7.095c-0.802-2.678-1.496-5.507-2.744-8.012
				c-5.844-11.733-7.15-15.32-8.331-18.761C325.819,137.305,325.319,98.532,325.319,98.532z"/>
			<g>
				<path id="XMLID_16_" style="fill:#FAFAFA;" d="M331.91,115.953c-0.606-5.432-0.851-13.846-6.592-17.421
					c0,0-5.779-1.208-8.041-1.356c0,0-5.274-0.456-11.688,0c-3.775,0.268-11.736,1.699-11.736,1.699l-6.947,33.554
					c0,0-1.458,17.097-0.19,29.697c9.683,6.497,35.297,6.225,45.86,0.229C331.994,151.385,332.673,122.785,331.91,115.953z"/>
			</g>
			<g id="Head_1_">
				<g>
					<g>
						<g id="XMLID_13_">
							<g id="XMLID_14_">
								<path style="fill:#E0E0E0;" d="M304.632,62.457c0,0-2.873-0.897-5.135,2.029c-1.975,2.554-0.95,7.951-0.015,13.594
									c0.936,5.643,2.228,8.761,2.912,10.356c0.684,1.594,2.299,2.153,2.299,2.153l0.349-6.583l0.117-4.597
									c0,0,3.25-3.785,3.828-7.049c0.743-4.201-0.014-6.003-0.014-6.003L304.632,62.457z"/>
								<path id="XMLID_15_" style="fill:#E0E0E0;" d="M308.379,70.232c-0.503,6.778,4.584,12.68,11.362,13.183
									c6.778,0.503,12.68-4.584,13.183-11.362c0.503-6.778-4.584-12.68-11.362-13.183
									C314.784,58.368,308.882,63.455,308.379,70.232z"/>
								<path style="fill:#F0F0F0;" d="M299.252,85.1c2.314,1.751,4.674-0.574,4.674-0.574l-0.844,13.626
									c0,0,0.441,2.116,5.249,4.738c5.939,3.239,14.596,2.207,10.413-4.658l0.378-3.222c0,0,2.295,0.248,4.124,0.1
									c3.051-0.238,5.352-2.262,6.507-5.455c1.854-5.135,2.117-13.041,0.884-23.384c-3.174-2.879-14.228-4.142-21.667-0.196
									c-0.121,6.026-1.992,8.564-2.15,10.745c-0.522,0.827-2.451,1.405-2.844,1.699c-0.276-1.447-0.472-1.785-1.322-2.827
									c-0.859-1.035-3.784-2.587-5.532,0.481C295.352,79.297,297.252,83.592,299.252,85.1z"/>
								<path style="fill:#E0E0E0;" d="M319.122,95.009c-3.558-0.498-8.668-2.431-10.489-4.421c-1.775-1.94-2.514-3.705-3.044-5.582
									c0,3.02,0.675,5.432,2.756,7.676c2.081,2.244,6.861,3.656,10.544,4.317L319.122,95.009z"/>
								<path style="fill:#E0E0E0;" d="M333.57,58.675c-0.079-0.182-0.219-0.353-0.413-0.373c-0.152-0.015-0.296,0.068-0.426,0.148
									c-0.47,0.287-1.52,1.039-2.826,1.601c0.344-1.184,0.453-2.435,0.33-3.661c-0.076-0.754-0.153-2.491-1.059-2.747
									c-0.539-0.152-1.052,0.269-1.49,0.619c-3.954,3.165-8.643,1.196-13.097,0.993c-3.723-0.169-8.323,0.995-10.28,4.477
									c-0.895,1.593-1.162,3.324,0.266,4.584c1.219,1.075,2.844,1.644,4.397,2.04c7.3,1.861,17.067,5.169,23.072-1.306
									c0.884-0.953,1.527-2.012,1.756-3.297c0.194-1.086,0.166-2.022-0.213-3.034C333.583,58.705,333.577,58.69,333.57,58.675z"/>
							</g>
						</g>
					</g>
					<path style="fill:#E0E0E0;" d="M317.44,77.576c-0.005-0.813-0.644-1.469-1.426-1.466c-0.783,0.003-1.412,0.665-1.407,1.477
						c0.005,0.813,0.644,1.469,1.426,1.466C316.816,79.051,317.446,78.389,317.44,77.576z M326.759,76.029
						c-0.787,0.003-1.421,0.669-1.416,1.487c0.005,0.818,0.648,1.479,1.435,1.476c0.788-0.003,1.422-0.669,1.417-1.487
						C328.19,76.687,327.547,76.026,326.759,76.029z M314.63,72.471c-0.87,0.276-1.369,1.229-1.113,2.128l3.152-1
						C316.414,72.7,315.501,72.195,314.63,72.471z M328.13,72.532c-0.861-0.325-1.798,0.126-2.093,1.006l3.118,1.175
						C329.451,73.833,328.991,72.856,328.13,72.532z M321.801,84.113l4.337-0.732l-4.524-7.338L321.801,84.113z M318.396,88.462
						c1.102,0.335,2.25-0.32,2.564-1.461l-3.99-1.212C316.655,86.931,317.294,88.128,318.396,88.462z"/>
					<path style="opacity:0.1;" d="M317.44,77.576c-0.005-0.813-0.644-1.469-1.426-1.466c-0.783,0.003-1.412,0.665-1.407,1.477
						c0.005,0.813,0.644,1.469,1.426,1.466C316.816,79.051,317.446,78.389,317.44,77.576z M326.759,76.029
						c-0.787,0.003-1.421,0.669-1.416,1.487c0.005,0.818,0.648,1.479,1.435,1.476c0.788-0.003,1.422-0.669,1.417-1.487
						C328.19,76.687,327.547,76.026,326.759,76.029z M314.63,72.471c-0.87,0.276-1.369,1.229-1.113,2.128l3.152-1
						C316.414,72.7,315.501,72.195,314.63,72.471z M328.13,72.532c-0.861-0.325-1.798,0.126-2.093,1.006l3.118,1.175
						C329.451,73.833,328.991,72.856,328.13,72.532z M318.396,88.462c1.102,0.335,2.25-0.32,2.564-1.461l-3.99-1.212
						C316.655,86.931,317.294,88.128,318.396,88.462z"/>
				</g>
			</g>
			<path style="fill:#F0F0F0;" d="M270.407,139.261c-0.992,4.45-0.009,6.096,4.346,16.158c2.147,4.582,7.181,13.779,9.127,17.035
				c2.633,4.404,3.35,5.688,5.734,7.559c2.677,0.631,8.808-3.786,8.935-7.639c-1.513-0.875-2.49-2.372-2.49-2.372
				c1.429,0.752,4.338,1.437,5.221,1.46c1.99,0.052,2.48-1.086,2.48-1.715c0-0.724-0.941-0.797-2.689-1.732
				c-1.499-0.802-2.528-1.879-4.943-3.173c-1.655-0.887-2.28-0.803-3.409-2.001c-1.779-1.888-3.202-5.612-4.927-10.629
				c-1.864-5.422-2.984-10.115-2.984-10.115l9.113-22.627c0,0,3.324-12.389-0.068-20.596c-6.947,0.636-10.251,2.88-13.269,10.144
				C278.41,114.254,270.936,135.709,270.407,139.261z"/>
		</g>
	</g>
</g>
<g id="Tree">
	<g id="Tree_1_">
		<path style="fill:#BA68C8;" d="M112.727,101.694c-0.4-1.524-0.202-3.165-0.967-4.592c-0.675-1.26-2-2.473-3.079-3.398
			c-1.167-1.001-2.509-1.876-4.069-2.127c-1.512-0.243-2.732,0.313-4.114,0.573c-0.672-6.198-13.136-8.333-14.56-1.708
			c-2.762-0.978-5.734,0.296-6.247,3.408c-2.24-1.302-3.574-2.654-6.405-2.395c-2.616,0.238-4.322,1.808-4.956,4.336
			c-2.718-1.701-5.214-3.028-8.463-3.289c-2.832-0.228-5.192,1.406-7.292,3.213c-1.775,1.528-3.291,3.355-4.158,5.554
			c-0.286,0.725-1.664,5.858-0.49,6.247c-3.955-1.31-8.679,0.233-11.098,3.625c-2.419,3.393-2.339,8.362,0.189,11.674
			c-4.017-0.293-8.343,1.105-10.717,4.358c-2.375,3.253-2.094,8.443,1.165,10.809c1.249,0.907,3.079,1.967,2.559,3.421
			c-0.253,0.707-0.998,1.085-1.542,1.602c-2.349,2.231-0.552,6.125,1.323,8.767c-3.522-0.621-7.172-1.239-10.638-0.358
			c-3.466,0.881-6.712,3.694-6.896,7.266c-0.052,1.014,0.139,2.023,0.33,3.021c0.581,3.036,1.188,6.144,2.781,8.794
			c1.156,1.924,3.199,3.674,5.408,3.275c-0.313,2.899,2.024,5.555,4.746,6.599c6.823,2.617,13.07-2.609,20.184-0.827
			c6.279,1.572,12.19,7.126,18.296,4.978c3.803-1.338,7.725-5.501,11-3.149c1.497,1.076,1.923,3.114,3.114,4.521
			c4.825,5.702,13.404-3.012,18.005,1.089c1.987,1.771,1.75,4.944,0.231,6.987c-3.011,4.051-6.959,1.533-10.862,0.595
			c-5.416-1.301-11.539,2.259-13.088,7.609c1.872-6.466-19.288-11.015-19.743,0.323c-3.529-0.395-7.137-0.069-10.538,0.953
			c-2.236,0.672-4.788,2.324-4.403,4.627c-4.154,0.343-8.154,2.297-10.977,5.363c-2.366,2.57-3.858,6.634-1.869,9.507
			c1.076,1.555,3.067,2.615,3.317,4.49c-3.265,1.815-5.036,5.962-4.089,9.576c0.181,0.691,0.429,1.499-0.011,2.062
			c-0.37,0.473-1.051,0.53-1.651,0.562c-2.215,0.116-4.494,0.442-6.389,1.595c-1.896,1.152-3.326,3.3-3.059,5.502
			c0.268,2.202,2.668,4.067,4.753,3.312c-1.22,1.305-2.474,2.666-3.049,4.358c-0.575,1.692-0.277,3.819,1.172,4.865
			c1.594,1.151,3.826,0.594,5.611-0.228c3.119-1.436,5.923-3.555,8.155-6.165c0.551-0.644,1.143-1.363,1.978-1.508
			c1.346-0.234,2.432,1.162,2.76,2.488c0.328,1.326,0.27,2.784,0.971,3.957c1.301,2.177,4.57,2.226,6.808,1.032
			c2.237-1.194,3.88-3.249,5.94-4.728c0.462-0.332,1.059-0.645,1.573-0.401c0.528,0.25,0.65,0.924,0.828,1.48
			c0.713,2.223,3.254,3.46,5.586,3.348c2.332-0.112,4.475-1.283,6.422-2.571c0.78-0.516,1.686-1.082,2.585-0.824
			c1.059,0.304,1.473,1.54,2.113,2.438c1.345,1.887,4.038,2.393,6.28,1.808c2.242-0.585,4.141-2.04,5.961-3.475
			c0.522-1.309,1.043-2.618,1.565-3.927c0.385,1.716,3.325,3.235,4.889,3.716c2.387,0.734,6.132,0.702,8.45-0.236
			c3.351-1.357,5.952-5.331,6.944-8.732c2.123,0.719,3.258,2.876,5.825,0.712c2.351-1.981,1.285-3.99,1.619-6.506
			c2.341,0.192,4.434,1.941,6.793,0.608c2.434-1.375,2.072-4.47,1.357-6.732c4.077,2.816,10.993,1.683,12.224-3.655
			c2.247,0.873,3.631,2.977,6.679,2.916c1.625-0.032,4.137-0.764,5.339-1.986c0.874-0.888,0.924-2.284,2.098-2.873
			c0.785,1.815,3.749,2.31,5.458,1.789c2.852-0.87,3.345-3.246,4.166-5.434c-0.233,0.62,2.433,3.254,3.063,3.618
			c1.699,0.98,4.694,0.88,6.539,0.483c2.515-0.541,4.158-2.551,6.254-3.753c0.923,2.178,2.475,5.038,5.099,5.223
			c2.675,0.188,5.499-2.206,8.178-1.07c2.478,1.053,2.841,3.545,6.12,3.119c4.493-0.584,6.371-3.15,7.537-7.101
			c2.645,0.981,6.203,2.609,9.108,1.259c3.682-1.711,3.456-5.098,3.487-8.453c2.101,0.73,7.214,0.743,8-1.782
			c0.941-3.024-1.952-5.929-3.744-7.776c1.096-0.987,2.658-1.388,3.135-3.007c0.386-1.309-0.216-3.112-0.915-4.184
			c-1.676-2.569-4.378-2.646-6.663-3.81c4.191-0.689,4.045-4.926,1.37-7.218c2.078-0.125,4.691,0.362,6.372-1.203
			c1.39-1.294,0.946-2.693,1.029-4.462c1.908,0.904,4.823,1.283,6.798,0.27c1.887-0.968,2.066-2.619,2.897-4.3
			c3.084,3.809,10.973,5.147,12.003-0.655c3.369,7.502,11.9,7.966,17.515,2.612c0.466,3.278,2.726,5.303,6.109,5.738
			c5.183,0.667,10.62-0.745,11.09-6.792c5.049,3.875,13.924,2.671,11.257-5.628c4.488,1.222,8.682-0.27,8.751-5.418
			c0.044-3.337-1.381-5.215-4.841-5.322c0.116-0.902,1.414-1.4,1.945-2.328c1.027-1.793,0.846-4.214-0.572-5.675
			c-1.213-1.251-5.109-1.041-5.671-1.998c-0.275-0.468,0.665-2.341,0.596-3.032c-0.133-1.342-1.055-2.723-2.166-3.585
			c-1.909-1.482-4.643-0.801-6.984-0.874c0.67-3.536,0.744-9.172-4.639-8.74c2.847,0.08,5.381,2.058,8.421,1.983
			c2.758-0.068,5.039-1.552,6.247-3.938c1.371,2.434,3.25,4.078,6.168,4.299c4.097,0.31,6.528-2.57,7.314-5.894
			c0.293,2.279,3.488,3.386,5.487,3.158c2.677-0.306,5.404-3.894,5.243-6.604c2.242,0.874,4.982,2.109,7.349,0.859
			c3.276-1.73,3.335-6.267,2.717-9.38c2.777,1.344,3.811-3.675,2.946-5.512c-2.062-4.379-8.125-4.815-12.233-4.835
			c-0.629-2.632-0.85-4.538-3.687-5.894c-1.311-0.627-3.276-1.011-4.73-0.795c-1.149,0.171-2.178,1.293-3.239,1.436
			c-1.485,0.201-1.16-0.347-2.734-1.371c-1.646-1.071-4.591-1.473-6.503-1.06c-1.003,0.217-5.959,2.855-5.965,3.816
			c0.024-3.671-0.939-10.054-5.868-9.269c8.07-3.144,6.376-12.284-2.487-11.823c-1.43-7.906-12.453-10.302-17.954-4.381
			c-2.619-2.514-3.54-4.953-7.646-5.191c-3.989-0.23-9.671,1.501-12.467,3.697c-0.474-5.234-1.684-8.723-7.426-8.633
			c-0.241-4.723,0.339-10.322-3.8-13.656c-4.332-3.489-11.347-2.936-15.431,0.007c-1.703-2.816-3.236-6.189-5.914-8.244
			c-2.482-1.905-5.46-2.521-8.477-2.491c-1.339,0.013-3.219,0.084-4.5,0.509c-0.602,0.199-2.701,1.982-3.134,1.885
			c-1.246-0.277-1.35-1.973-1.937-3.063c-1.295-2.405-2.554-3.757-4.829-5.197c-4.235-2.682-8.725-3.173-12.925-0.081
			c-1.865-5.672-7.433-14.984-14.733-10.494c-0.838,0.516-2.652,3.36-3.785,3.242c-0.584-0.061-1.597-1.487-2.099-1.858
			c-1.204-0.89-2.47-1.547-3.925-1.928c-2.376-0.623-5.925-0.853-8.1,0.549c-1.217,0.784-2.058,3.281-3.309,3.638
			c-1.391,0.396-3.895-1.443-5.38-1.794c-3.357-0.793-6.84-0.842-9.689,1.327c-1.113,0.847-2.595,4.313-3.746,4.619
			c-0.588,0.156-1.776-0.712-2.344-0.895c-1.919-0.62-4.129-0.935-6.128-1.095c-2.74-0.219-5.74-0.187-8.009,1.558
			c-1.336,1.028-2.469,4.262-3.692,4.853c-0.915,0.443-4.412-0.756-5.58-0.717c-2.994,0.099-4.585,1.32-6.443,3.646
			c-1.5,1.878-2.555,4.367-4.772,5.553c-2.454,1.313-5.443,0.418-8.074,0.445c-2.843,0.03-5.949,0.433-6.602,3.773
			c-0.464,2.374,1.022,3.183,2.276,4.492c-2.782,2.035,1.266,4.799,2.914,5.53c3.455,1.532,6.796,2.09,10.15,0.454
			c2.106,5.473,13.096,4.857,16.082,0.742c-0.158,7.693,9.213,7.942,14.522,5.524c-3.862,6.152,5.957,9.669,10.485,8.585
			c-1.859,0.895-1.401,3.96-0.485,5.769c0.786,1.552,2.016,2.714,3.458,3.653c1.279,0.833,3.112,1.401,4.143,2.508
			c-1.634,0.807-2.708,1.578-3.568,3.596c-0.684,1.605-1.002,2.534-0.76,4.268c-0.105-0.755-2.936-2.706-3.663-2.901
			C116.542,100.301,113.915,100.57,112.727,101.694z"/>
		<path style="opacity:0.5;fill:#FFFFFF;" d="M112.727,101.694c-0.4-1.524-0.202-3.165-0.967-4.592c-0.675-1.26-2-2.473-3.079-3.398
			c-1.167-1.001-2.509-1.876-4.069-2.127c-1.512-0.243-2.732,0.313-4.114,0.573c-0.672-6.198-13.136-8.333-14.56-1.708
			c-2.762-0.978-5.734,0.296-6.247,3.408c-2.24-1.302-3.574-2.654-6.405-2.395c-2.616,0.238-4.322,1.808-4.956,4.336
			c-2.718-1.701-5.214-3.028-8.463-3.289c-2.832-0.228-5.192,1.406-7.292,3.213c-1.775,1.528-3.291,3.355-4.158,5.554
			c-0.286,0.725-1.664,5.858-0.49,6.247c-3.955-1.31-8.679,0.233-11.098,3.625c-2.419,3.393-2.339,8.362,0.189,11.674
			c-4.017-0.293-8.343,1.105-10.717,4.358c-2.375,3.253-2.094,8.443,1.165,10.809c1.249,0.907,3.079,1.967,2.559,3.421
			c-0.253,0.707-0.998,1.085-1.542,1.602c-2.349,2.231-0.552,6.125,1.323,8.767c-3.522-0.621-7.172-1.239-10.638-0.358
			c-3.466,0.881-6.712,3.694-6.896,7.266c-0.052,1.014,0.139,2.023,0.33,3.021c0.581,3.036,1.188,6.144,2.781,8.794
			c1.156,1.924,3.199,3.674,5.408,3.275c-0.313,2.899,2.024,5.555,4.746,6.599c6.823,2.617,13.07-2.609,20.184-0.827
			c6.279,1.572,12.19,7.126,18.296,4.978c3.803-1.338,7.725-5.501,11-3.149c1.497,1.076,1.923,3.114,3.114,4.521
			c4.825,5.702,13.404-3.012,18.005,1.089c1.987,1.771,1.75,4.944,0.231,6.987c-3.011,4.051-6.959,1.533-10.862,0.595
			c-5.416-1.301-11.539,2.259-13.088,7.609c1.872-6.466-19.288-11.015-19.743,0.323c-3.529-0.395-7.137-0.069-10.538,0.953
			c-2.236,0.672-4.788,2.324-4.403,4.627c-4.154,0.343-8.154,2.297-10.977,5.363c-2.366,2.57-3.858,6.634-1.869,9.507
			c1.076,1.555,3.067,2.615,3.317,4.49c-3.265,1.815-5.036,5.962-4.089,9.576c0.181,0.691,0.429,1.499-0.011,2.062
			c-0.37,0.473-1.051,0.53-1.651,0.562c-2.215,0.116-4.494,0.442-6.389,1.595c-1.896,1.152-3.326,3.3-3.059,5.502
			c0.268,2.202,2.668,4.067,4.753,3.312c-1.22,1.305-2.474,2.666-3.049,4.358c-0.575,1.692-0.277,3.819,1.172,4.865
			c1.594,1.151,3.826,0.594,5.611-0.228c3.119-1.436,5.923-3.555,8.155-6.165c0.551-0.644,1.143-1.363,1.978-1.508
			c1.346-0.234,2.432,1.162,2.76,2.488c0.328,1.326,0.27,2.784,0.971,3.957c1.301,2.177,4.57,2.226,6.808,1.032
			c2.237-1.194,3.88-3.249,5.94-4.728c0.462-0.332,1.059-0.645,1.573-0.401c0.528,0.25,0.65,0.924,0.828,1.48
			c0.713,2.223,3.254,3.46,5.586,3.348c2.332-0.112,4.475-1.283,6.422-2.571c0.78-0.516,1.686-1.082,2.585-0.824
			c1.059,0.304,1.473,1.54,2.113,2.438c1.345,1.887,4.038,2.393,6.28,1.808c2.242-0.585,4.141-2.04,5.961-3.475
			c0.522-1.309,1.043-2.618,1.565-3.927c0.385,1.716,3.325,3.235,4.889,3.716c2.387,0.734,6.132,0.702,8.45-0.236
			c3.351-1.357,5.952-5.331,6.944-8.732c2.123,0.719,3.258,2.876,5.825,0.712c2.351-1.981,1.285-3.99,1.619-6.506
			c2.341,0.192,4.434,1.941,6.793,0.608c2.434-1.375,2.072-4.47,1.357-6.732c4.077,2.816,10.993,1.683,12.224-3.655
			c2.247,0.873,3.631,2.977,6.679,2.916c1.625-0.032,4.137-0.764,5.339-1.986c0.874-0.888,0.924-2.284,2.098-2.873
			c0.785,1.815,3.749,2.31,5.458,1.789c2.852-0.87,3.345-3.246,4.166-5.434c-0.233,0.62,2.433,3.254,3.063,3.618
			c1.699,0.98,4.694,0.88,6.539,0.483c2.515-0.541,4.158-2.551,6.254-3.753c0.923,2.178,2.475,5.038,5.099,5.223
			c2.675,0.188,5.499-2.206,8.178-1.07c2.478,1.053,2.841,3.545,6.12,3.119c4.493-0.584,6.371-3.15,7.537-7.101
			c2.645,0.981,6.203,2.609,9.108,1.259c3.682-1.711,3.456-5.098,3.487-8.453c2.101,0.73,7.214,0.743,8-1.782
			c0.941-3.024-1.952-5.929-3.744-7.776c1.096-0.987,2.658-1.388,3.135-3.007c0.386-1.309-0.216-3.112-0.915-4.184
			c-1.676-2.569-4.378-2.646-6.663-3.81c4.191-0.689,4.045-4.926,1.37-7.218c2.078-0.125,4.691,0.362,6.372-1.203
			c1.39-1.294,0.946-2.693,1.029-4.462c1.908,0.904,4.823,1.283,6.798,0.27c1.887-0.968,2.066-2.619,2.897-4.3
			c3.084,3.809,10.973,5.147,12.003-0.655c3.369,7.502,11.9,7.966,17.515,2.612c0.466,3.278,2.726,5.303,6.109,5.738
			c5.183,0.667,10.62-0.745,11.09-6.792c5.049,3.875,13.924,2.671,11.257-5.628c4.488,1.222,8.682-0.27,8.751-5.418
			c0.044-3.337-1.381-5.215-4.841-5.322c0.116-0.902,1.414-1.4,1.945-2.328c1.027-1.793,0.846-4.214-0.572-5.675
			c-1.213-1.251-5.109-1.041-5.671-1.998c-0.275-0.468,0.665-2.341,0.596-3.032c-0.133-1.342-1.055-2.723-2.166-3.585
			c-1.909-1.482-4.643-0.801-6.984-0.874c0.67-3.536,0.744-9.172-4.639-8.74c2.847,0.08,5.381,2.058,8.421,1.983
			c2.758-0.068,5.039-1.552,6.247-3.938c1.371,2.434,3.25,4.078,6.168,4.299c4.097,0.31,6.528-2.57,7.314-5.894
			c0.293,2.279,3.488,3.386,5.487,3.158c2.677-0.306,5.404-3.894,5.243-6.604c2.242,0.874,4.982,2.109,7.349,0.859
			c3.276-1.73,3.335-6.267,2.717-9.38c2.777,1.344,3.811-3.675,2.946-5.512c-2.062-4.379-8.125-4.815-12.233-4.835
			c-0.629-2.632-0.85-4.538-3.687-5.894c-1.311-0.627-3.276-1.011-4.73-0.795c-1.149,0.171-2.178,1.293-3.239,1.436
			c-1.485,0.201-1.16-0.347-2.734-1.371c-1.646-1.071-4.591-1.473-6.503-1.06c-1.003,0.217-5.959,2.855-5.965,3.816
			c0.024-3.671-0.939-10.054-5.868-9.269c8.07-3.144,6.376-12.284-2.487-11.823c-1.43-7.906-12.453-10.302-17.954-4.381
			c-2.619-2.514-3.54-4.953-7.646-5.191c-3.989-0.23-9.671,1.501-12.467,3.697c-0.474-5.234-1.684-8.723-7.426-8.633
			c-0.241-4.723,0.339-10.322-3.8-13.656c-4.332-3.489-11.347-2.936-15.431,0.007c-1.703-2.816-3.236-6.189-5.914-8.244
			c-2.482-1.905-5.46-2.521-8.477-2.491c-1.339,0.013-3.219,0.084-4.5,0.509c-0.602,0.199-2.701,1.982-3.134,1.885
			c-1.246-0.277-1.35-1.973-1.937-3.063c-1.295-2.405-2.554-3.757-4.829-5.197c-4.235-2.682-8.725-3.173-12.925-0.081
			c-1.865-5.672-7.433-14.984-14.733-10.494c-0.838,0.516-2.652,3.36-3.785,3.242c-0.584-0.061-1.597-1.487-2.099-1.858
			c-1.204-0.89-2.47-1.547-3.925-1.928c-2.376-0.623-5.925-0.853-8.1,0.549c-1.217,0.784-2.058,3.281-3.309,3.638
			c-1.391,0.396-3.895-1.443-5.38-1.794c-3.357-0.793-6.84-0.842-9.689,1.327c-1.113,0.847-2.595,4.313-3.746,4.619
			c-0.588,0.156-1.776-0.712-2.344-0.895c-1.919-0.62-4.129-0.935-6.128-1.095c-2.74-0.219-5.74-0.187-8.009,1.558
			c-1.336,1.028-2.469,4.262-3.692,4.853c-0.915,0.443-4.412-0.756-5.58-0.717c-2.994,0.099-4.585,1.32-6.443,3.646
			c-1.5,1.878-2.555,4.367-4.772,5.553c-2.454,1.313-5.443,0.418-8.074,0.445c-2.843,0.03-5.949,0.433-6.602,3.773
			c-0.464,2.374,1.022,3.183,2.276,4.492c-2.782,2.035,1.266,4.799,2.914,5.53c3.455,1.532,6.796,2.09,10.15,0.454
			c2.106,5.473,13.096,4.857,16.082,0.742c-0.158,7.693,9.213,7.942,14.522,5.524c-3.862,6.152,5.957,9.669,10.485,8.585
			c-1.859,0.895-1.401,3.96-0.485,5.769c0.786,1.552,2.016,2.714,3.458,3.653c1.279,0.833,3.112,1.401,4.143,2.508
			c-1.634,0.807-2.708,1.578-3.568,3.596c-0.684,1.605-1.002,2.534-0.76,4.268c-0.105-0.755-2.936-2.706-3.663-2.901
			C116.542,100.301,113.915,100.57,112.727,101.694z"/>
		<path style="opacity:0.3;fill:#BA68C8;" d="M27.467,137.982c1.249,0.907,3.079,1.967,2.559,3.421
			c-0.095,0.266-0.272,0.479-0.47,0.677c1.01,0.043,1.975-0.029,2.833-0.246c0.88-0.223,1.417-0.827,2.308-0.584
			c1.209,0.33,2.37,2.454,3.239,3.225c3.933,3.487,10.082,3.101,12.027-1.959c2.785,1.273,5.6,2.135,8.868,1.876
			c1.987-0.158,4.288-0.857,5.862-2.136c0.524-0.426,1.543-2.236,2.171-2.404c0.775-0.207,1.991,0.828,2.72,1.191
			c2.264,1.126,4.111,1.597,6.608,0.865c1.728-0.507,3.928-1.395,3.471-3.498c-2.255,2.128-3.839,2.268-6.645,0.497
			c-2.287-1.443-3.134-3.307-3.796-5.801c-1.425,0.944-2.797,2.678-4.799,2.219c-1.678-0.385-1.687-1.847-2.479-2.917
			c-1.108,2.288-1.278,3.795-3.771,5.094c-1.751,0.912-3.562,1.056-5.475,0.728c-1.865-0.32-4.361-1.704-4.3-3.892
			c-3.102,4.987-14.787-0.221-11.349-4.708c-2.368,2.378-6-0.301-6.858-2.85c-0.382-1.137-0.378-1.978-0.136-2.663
			c-1.472,0.721-2.781,1.726-3.753,3.058C23.928,130.425,24.208,135.615,27.467,137.982z M64.789,62.985
			c-2.782,2.035,1.266,4.799,2.914,5.53c3.455,1.532,6.796,2.09,10.151,0.454c2.106,5.473,13.095,4.857,16.082,0.742
			c-0.158,7.693,9.213,7.942,14.522,5.524c-3.862,6.152,5.957,9.669,10.485,8.585c-1.859,0.895-1.401,3.96-0.484,5.769
			c0.786,1.552,2.015,2.714,3.458,3.653c1.279,0.833,3.112,1.401,4.143,2.508c5.568-1.054,7.884,1.224,10.06,5.207
			c0.528,0.967,0.753,1.058,1.701,1.357c0.867,0.273,2.201-0.016,3.116,0.001c2.427,0.043,6.577,0.695,8.174,2.799
			c-1.288-3.331-3.116-4.645-6.257-6.214c-2.821-1.409-3.028-3.512-0.644-5.501c-2.169-0.676-4.926-1.55-6.571-3.173
			c-2.135-2.105-1.875-4.789-2.011-7.504c-2.762,0.261-5.846,0.244-7.599-2.359c-1.767-2.626-0.008-4.814,0.359-7.362
			c-3.858,0.754-9.17,1.303-12.651-1.201c-2.269-1.632-1.371-2.957-1.26-5.229c-5.021,1.299-17.955,1.976-16.921-6.681
			c-0.854,2.719-3.456,5.015-6.47,4.915c-1.357-0.045-3.657-0.762-3.267-2.491c-1.962,1.344-8.689,2.392-9.34-1.117
			c-0.351-1.892,1.593-2.879,3.061-3.309c-1.17-1.11-2.132-2.105-2.301-3.645c-0.018,0.01-0.032,0.023-0.05,0.032
			c-2.454,1.313-5.443,0.418-8.074,0.445c-2.843,0.03-5.949,0.433-6.602,3.773C62.049,60.867,63.535,61.676,64.789,62.985z
			 M20.792,173.768c-0.313,2.899,2.024,5.555,4.746,6.599c6.823,2.617,13.07-2.609,20.185-0.827
			c6.278,1.572,12.19,7.126,18.296,4.978c3.803-1.338,7.725-5.501,11-3.149c1.497,1.076,1.923,3.114,3.114,4.521
			c4.825,5.702,13.404-3.012,18.005,1.089c1.244,1.109,1.616,2.766,1.347,4.353c2.77-1.302,4.206-4.499,7.397-5.037
			c-2.506,0.103-5.927-0.673-7.471-3.162c-0.619-0.997-1.052-2.31,0.033-3.176c-1.729,0.171-3.309,1.335-4.928,1.909
			c-1.275,0.452-4.62,1.158-5.943,0.506c-1.782-0.879-0.076-2.643,0.856-3.745c-1.586-0.208-3.171,0.54-4.794,0.464
			c-1.752-0.083-3.851-0.538-5.272-1.643c-1.343-1.044-2.754-2.91-2.799-4.659c-0.902,0.286-7.869,5.229-7.901,2.099
			c-2.471,2.643-5.335,4.331-9.081,2.837c-1.907-0.76-3.532-3.059-3.743-5.1c-2.599,1.164-10.535,3.369-9.924-2.181
			c-3.829,2.048-8.658,6.254-13.428,3.458c-2.561-1.501-1.32-4.383-0.621-6.409c-2.294,0.42-6.868,2.022-8.057-1.084
			c-0.623-1.628,0.636-3.008,1.411-4.208c-3.151-0.015-6.668-0.141-7.679-3.789c-0.506-1.823,0.286-5.118,2.05-6.45
			c-2.816,1.226-5.162,3.699-5.318,6.719c-0.052,1.014,0.139,2.023,0.33,3.021c0.581,3.036,1.188,6.144,2.781,8.794
			C16.541,172.417,18.584,174.167,20.792,173.768z M323.034,119.471c-0.056,0.116-0.118,0.232-0.211,0.344
			c-0.884,1.071-4.141,1.048-5.184,0.279c-0.139,1.996,0.88,3.984-0.917,5.635c-2.582,2.372-6.688,0.503-9.242-0.802
			c-0.349,1.821-0.686,4.4-2.293,5.599c-2.819,2.104-5.977-1.063-8.45-2.069c0.043,1.927-0.649,3.546-2.719,4.075
			c-3.951,1.01-5.332-1.993-8.043-3.748c-1.531,1.212-1.443,2.888-3.918,3.253c-2.502,0.369-4.511-1.175-6.158-2.824
			c-1.024-1.025-1.933-2.95-3.138-3.623c-0.966,1.711-2.462,3.788-4.341,4.575c-4.908,2.054-8.275-2.394-11.941-4.343
			c-0.383,1.671-2.11,2.762-3.864,2.615c-3.233-0.271-3.561-4.104-5.98-4.798c-1.272,1.708-2.579,2.806-4.661,3.464
			c-4.06,1.283-6.262-1.151-9.491-3.126c-1.083,6.918,6.467,10.879,12.297,8.242c-0.425,2.811-0.495,6.313,2.856,7.235
			c3.347,0.921,8.838-0.066,10.919-2.948c0.102,5.921,10.06,5.962,12.616,1.432c0.949,0.954,1.911,1.762,2.901,2.492
			c1.691,0.59,3.38,1.332,5.265,1.285c2.758-0.068,5.039-1.552,6.247-3.938c1.371,2.434,3.25,4.078,6.168,4.299
			c4.097,0.31,6.528-2.57,7.314-5.894c0.293,2.279,3.488,3.386,5.487,3.158c2.677-0.306,5.404-3.894,5.243-6.604
			c2.242,0.874,4.982,2.109,7.349,0.859c3.276-1.73,3.335-6.267,2.717-9.38C322.312,125.4,323.404,121.636,323.034,119.471z
			 M280.966,172.065c-0.126,3.055-1.097,6.174-4.91,5.177c-2.06-0.539-3.191-2.512-4.821-3.446c0.108,4.339-3.117,9.149-7.901,6.829
			c-2.238-1.085-2.633-3.513-4.063-5.137c-3.531,2.13-6.225,2.719-10.202,0.726c-2.324-1.165-4.715-2.354-4.662-5.264
			c-3.101,3.092-6.727,6.117-11.612,4.433c-3.439-1.186-3.294-3.649-3.404-6.711c-3.8,2.052-8.595,3.348-12.457,0.649
			c-2.137-1.494-2.418-3.256-3.264-5.496c-4.556,2.258-8.533,1.898-11.559-2.543c-1.616-2.372-2.191-9.648,2.064-9.869
			c-4.4,0.003-8.828-1.554-5.625-6.8c2.239-3.667,6.336-5.757,10.454-6.281c-6.387-3.338,1.125-9.432,4.264-11.238l-0.663-0.884
			c-4.507,2.829-9.593,5.259-13.711,8.634c-1.997,1.637-3.399,3.906-5.411,5.514c-3.801,3.038-7.539,5.753-10.946,9.309
			c-3.762,3.926-7.101,8.905-10.429,13.237c-2.12,2.761-4.882,5.351-6.565,8.395c-2.2,3.978-4.574,7.616-6.719,11.624
			c-1.079,2.016-1.605,3.693-2.522,7.065c-0.356,1.311-0.952,3.532-0.989,4.936c1.803-2.142,3.529-3.837,5.661-5.667
			c2.708-2.325,0.708-4.067,2.398-6.585c1.585-2.36,5.141-2.56,7.626-1.874c0.031-4.632,2.792-11.313,7.91-11.714
			c3.137-0.245,5.297,0.345,6.497,2.814c1.613-2.496,6.505-2.509,8.432-0.577c1.859,1.863,1.898,4.632,2.225,7.071
			c1.948-2.248,3.928-3.974,6.893-3.573c3.667,0.496,4.688,3.14,6.1,5.933c4.311-4.823,6.948,0.463,7.51,4.815
			c0.052,0.405,0.144,0.788,0.26,1.157c-0.008-0.401-0.02-0.822,0-1.266c1.908,0.904,4.823,1.283,6.798,0.27
			c1.887-0.968,2.066-2.619,2.897-4.3c3.084,3.809,10.972,5.147,12.003-0.655c3.369,7.502,11.9,7.966,17.515,2.612
			c0.466,3.277,2.727,5.303,6.109,5.738c5.183,0.667,10.621-0.745,11.09-6.792c5.049,3.875,13.924,2.671,11.257-5.628
			c4.06,1.106,7.87-0.021,8.611-4.057c-0.965,0.392-2.088,0.636-3.408,0.687C286.721,173.447,283.792,171.887,280.966,172.065z
			 M210.654,214.944c-2.703-0.27-5.712-0.88-7.785-2.751c3.043,6.675-6.745,11.215-10.6,5.811c0.612,4.557-6.316,6.253-9.576,4.754
			c-2.513-1.156-3.198-3.307-3.25-5.781c-3.12,1.821-7.979,1.118-9.149-2.54c-1.045-3.267,1.992-5.396,4.183-7.06
			c-2.055-0.271-3.55-1.566-3.385-3.687c0.204-2.621,2.899-4.702,3.023-6.932c-3.091,1.809-5.81,5.603-10.047,5.479
			c1.893,4.467-14.033,10.776-11.865,0.394c0.255-1.221,1.126-2.617,1.042-3.824c-4.178,1.592-10.239,1.573-11.6-3.67
			c-0.307,4.01-3.854,9.634-8.297,9.32c-2.003-0.141-3.679-1.173-4.42-3.094c-0.252,1.67-2.858,4.177-4.487,4.679
			c-1.857,0.573-4.124-0.214-5.9-0.739c1.114,3.859,2.366,8.155-0.805,11.424c-2.573,2.651-4.878,1.482-8.077,1.753
			c0.948,3.447,0.777,10.058-3.551,11.037c-3.054,0.69-6.078-0.644-8.943-1.451c1.668,3.196-0.605,9.303-4.92,7.185
			c1.663,1.908,3.028,2.317,2.016,5.292c-1.543,4.531-8.097,3.725-10.803,0.826c-0.761,0.996-0.693,2.476-1.606,3.596
			c-1.955,2.399-4.91,3.12-7.853,3.107c-3.134-0.013-5.735-1.056-7.176-3.92c-3.572,3.824-7.778,5.469-13.136,4.145
			c-2.478-0.612-5.031-2.498-5.763-4.858c-1.414,5.451-13.423,7.452-13.259,0.363c-1.779,2.435-5.347,5.096-8.538,5.14
			c-2.802,0.039-2.024-2.319-0.208-3.457c-2.728,1.187-6.326,1.779-8.512-0.95c-0.79-0.985-1.007-2.456-0.655-3.68
			c-0.234,0.114-0.464,0.237-0.687,0.373c-1.896,1.152-3.327,3.3-3.059,5.502c0.268,2.202,2.668,4.067,4.753,3.312
			c-1.22,1.305-2.474,2.666-3.049,4.358c-0.574,1.692-0.277,3.819,1.172,4.865c1.594,1.151,3.826,0.594,5.611-0.228
			c3.119-1.436,5.923-3.555,8.155-6.165c0.551-0.644,1.143-1.363,1.978-1.508c1.346-0.234,2.432,1.162,2.76,2.488
			c0.328,1.326,0.27,2.784,0.971,3.957c1.301,2.177,4.57,2.226,6.808,1.032c2.237-1.194,3.88-3.249,5.941-4.728
			c0.462-0.332,1.058-0.645,1.572-0.401c0.528,0.25,0.65,0.924,0.828,1.48c0.714,2.223,3.254,3.46,5.586,3.348
			c2.332-0.112,4.475-1.283,6.422-2.571c0.78-0.516,1.686-1.082,2.585-0.824c1.06,0.304,1.474,1.54,2.113,2.438
			c1.345,1.887,4.038,2.393,6.28,1.808c2.242-0.585,4.141-2.04,5.961-3.475c0.522-1.309,1.043-2.618,1.565-3.927
			c0.385,1.716,3.325,3.235,4.889,3.716c2.387,0.734,6.132,0.702,8.45-0.236c3.351-1.357,5.952-5.331,6.944-8.732
			c2.123,0.719,3.258,2.876,5.825,0.712c2.351-1.981,1.285-3.99,1.62-6.506c2.341,0.192,4.434,1.941,6.793,0.608
			c2.434-1.375,2.072-4.47,1.357-6.732c4.077,2.816,10.993,1.683,12.224-3.655c2.247,0.873,3.631,2.977,6.679,2.916
			c1.625-0.033,4.137-0.764,5.34-1.986c0.874-0.888,0.924-2.284,2.098-2.873c0.785,1.815,3.75,2.31,5.458,1.789
			c2.852-0.87,3.345-3.246,4.166-5.434c-0.233,0.62,2.433,3.254,3.063,3.618c1.699,0.98,4.694,0.88,6.539,0.483
			c2.515-0.541,4.158-2.551,6.254-3.753c0.923,2.178,2.475,5.038,5.099,5.223c2.675,0.188,5.5-2.206,8.178-1.069
			c2.478,1.053,2.841,3.545,6.12,3.119c4.493-0.584,6.371-3.15,7.537-7.101c2.645,0.981,6.204,2.609,9.108,1.259
			c3.682-1.711,3.456-5.098,3.487-8.453c2.101,0.73,7.214,0.743,8-1.782c0.331-1.063,0.182-2.111-0.221-3.104
			C214.637,214.813,212.893,215.168,210.654,214.944z"/>
		<g>
			<path style="fill:#BA68C8;" d="M227.058,114.081c-8.569,7.598-19.053,12.429-28.825,18.22c-4.153,2.461-8.146,5.079-12.278,7.502
				c-2.58,1.513-6.318,3.326-6.252-1.334c0.103-7.222,6.595-13.575,6.884-20.473c-2.054,2.091-3.489,5.708-4.848,8.374
				c-2.205,4.323-4.511,8.532-6.327,13.043c-2.396,5.952-3.454,12.438-6.517,18.122c-3.126,5.801-7.891,10.801-11.333,16.478
				c-9.152,15.096-15.129,31.678-19.467,48.723c-1.114-7.884-5.36-14.659-6.898-22.415c-1.599-8.061-1.806-16.218-3.921-24.218
				c-2.181-8.255-5.481-16.088-9.942-23.358c-0.765-1.245-1.693,0.715-1.322,1.536c3.391,7.479,6.026,15.24,7.232,23.384
				c0.628,4.24,1.338,8.336,1.338,12.622c0,1.579,0.189,3.149,0.098,4.717c-3.176-2.632-6.425-5.335-8.689-8.831
				c-1.832-2.829-2.73-8.453-6.409-9.644c1.336,2.286,1.886,5.063,2.48,7.67c0.903,3.965,2.691,6.613,4.927,10.007
				c5.004,7.596,10.812,15.393,13.025,24.33c1.685,6.804,1.963,14.178,2.867,21.129c0.603,4.642,0.057,8.419-0.333,12.951
				c0.106-1.233-3.162-4.591-3.951-5.552c-1.644-2.001-4.005-3.373-6.007-4.977c-4.383-3.511-9.568-6.184-14.562-8.834
				c-6.028-3.199-12.783-5.138-17.438-10.472c-2.026-2.322-3.724-5.291-6.866-6.219c2.555,1.394,3.728,4.124,5.067,6.546
				c1.81,3.273,3.974,6.042,7.237,8.033c3.769,2.299,7.586,4.477,11.222,6.999c3.084,2.139,6.712,3.622,9.499,6.103
				c2.88,2.564,5.689,4.45,7.847,7.706c1.287,1.942,2.545,3.891,3.582,5.982c3.003,6.053,4.222,12.823,5.002,19.479
				c0.391,3.336,0.655,6.686,0.854,10.039c2.409,40.721-5.362,116.066-6.164,126.765c-0.729,2.79,0.749,5.736,4.47,7.884
				c6.223,3.593,18.589,4.072,24.811,0.479c3.111-1.796,4.916-4.151,4.916-6.505l0,0c0,0-1.8-62.2-8.44-127.344
				c-0.781-7.666-1.462-15.343-1.959-23.033c-0.217-3.362-0.302-6.734-0.53-10.094c-0.234-3.443-0.296-20.732,0.897-25.846
				c2.118-9.079,4.731-17.284,10.452-24.784c4.362-5.718,10.421-7.833,17.194-9.423c3.445-0.809,6.993-1.288,10.148-2.94
				c2.597-1.36,4.971-2.978,7.296-4.767c2.442-1.879,5.986-5.639,9.124-6.235c-2.597,0.001-4.403,0.905-6.699,2.082
				c-2.075,1.064-3.851,2.707-5.892,3.92c-1.871,1.112-3.824,2.03-5.903,2.775c-4.49,1.61-8.964,1.984-13.663,2.22
				c-4.213,0.211-7.509,1.391-11.062,3.689c-4.004,2.59-7.22,7.106-10.226,10.751c-0.314-3.031,0.775-6.715,1.607-9.607
				c2.091-7.268,5.956-13.799,9.682-20.334c4.046-7.094,8.692-13.853,13.98-20.079c7.37-8.676,15.94-16.13,25.371-22.487
				c8.623-5.814,17.805-10.389,24.124-18.945C227.868,115.19,227.792,113.43,227.058,114.081z"/>
			<path style="opacity:0.4;" d="M227.058,114.081c-8.569,7.598-19.053,12.429-28.825,18.22c-4.153,2.461-8.146,5.079-12.278,7.502
				c-2.58,1.513-6.318,3.326-6.252-1.334c0.103-7.222,6.595-13.575,6.884-20.473c-2.054,2.091-3.489,5.708-4.848,8.374
				c-2.205,4.323-4.511,8.532-6.327,13.043c-2.396,5.952-3.454,12.438-6.517,18.122c-3.126,5.801-7.891,10.801-11.333,16.478
				c-9.152,15.096-15.129,31.678-19.467,48.723c-1.114-7.884-5.36-14.659-6.898-22.415c-1.599-8.061-1.806-16.218-3.921-24.218
				c-2.181-8.255-5.481-16.088-9.942-23.358c-0.765-1.245-1.693,0.715-1.322,1.536c3.391,7.479,6.026,15.24,7.232,23.384
				c0.628,4.24,1.338,8.336,1.338,12.622c0,1.579,0.189,3.149,0.098,4.717c-3.176-2.632-6.425-5.335-8.689-8.831
				c-1.832-2.829-2.73-8.453-6.409-9.644c1.336,2.286,1.886,5.063,2.48,7.67c0.903,3.965,2.691,6.613,4.927,10.007
				c5.004,7.596,10.812,15.393,13.025,24.33c1.685,6.804,1.963,14.178,2.867,21.129c0.603,4.642,0.057,8.419-0.333,12.951
				c0.106-1.233-3.162-4.591-3.951-5.552c-1.644-2.001-4.005-3.373-6.007-4.977c-4.383-3.511-9.568-6.184-14.562-8.834
				c-6.028-3.199-12.783-5.138-17.438-10.472c-2.026-2.322-3.724-5.291-6.866-6.219c2.555,1.394,3.728,4.124,5.067,6.546
				c1.81,3.273,3.974,6.042,7.237,8.033c3.769,2.299,7.586,4.477,11.222,6.999c3.084,2.139,6.712,3.622,9.499,6.103
				c2.88,2.564,5.689,4.45,7.847,7.706c1.287,1.942,2.545,3.891,3.582,5.982c3.003,6.053,4.222,12.823,5.002,19.479
				c0.391,3.336,0.655,6.686,0.854,10.039c2.409,40.721-5.362,116.066-6.164,126.765c-0.729,2.79,0.749,5.736,4.47,7.884
				c6.223,3.593,18.589,4.072,24.811,0.479c3.111-1.796,4.916-4.151,4.916-6.505l0,0c0,0-1.8-62.2-8.44-127.344
				c-0.781-7.666-1.462-15.343-1.959-23.033c-0.217-3.362-0.302-6.734-0.53-10.094c-0.234-3.443-0.296-20.732,0.897-25.846
				c2.118-9.079,4.731-17.284,10.452-24.784c4.362-5.718,10.421-7.833,17.194-9.423c3.445-0.809,6.993-1.288,10.148-2.94
				c2.597-1.36,4.971-2.978,7.296-4.767c2.442-1.879,5.986-5.639,9.124-6.235c-2.597,0.001-4.403,0.905-6.699,2.082
				c-2.075,1.064-3.851,2.707-5.892,3.92c-1.871,1.112-3.824,2.03-5.903,2.775c-4.49,1.61-8.964,1.984-13.663,2.22
				c-4.213,0.211-7.509,1.391-11.062,3.689c-4.004,2.59-7.22,7.106-10.226,10.751c-0.314-3.031,0.775-6.715,1.607-9.607
				c2.091-7.268,5.956-13.799,9.682-20.334c4.046-7.094,8.692-13.853,13.98-20.079c7.37-8.676,15.94-16.13,25.371-22.487
				c8.623-5.814,17.805-10.389,24.124-18.945C227.868,115.19,227.792,113.43,227.058,114.081z"/>
		</g>
	</g>
</g>
<g id="Character_1">
	<g id="Character_1_">
		<g id="Bottom_1_">
			<g>
				<path style="fill:#F28F8F;" d="M318.09,394.75c-0.086,0.053-0.171,0.105-0.257,0.156c-1.898,1.143-3.875,2.156-5.913,3.027
					c-1.849,0.791-3.698,1.414-5.344,2.653c-8.159,6.139-13.932,8.282-22.648,20.324c0,0-12.534-9.821-13.702-10.717
					c0,0,6.488-3.955,6.117-7.045c-0.216-1.797,0.298-4.036,1.483-5.439c1.13-1.337,2.939-2.073,5.497-2.965
					c2.189-0.763,4.42-1.459,6.472-2.556c1.06-0.567,2.061-1.237,2.993-1.997c2.489-2.031,5.039-3.668,8.107-4.716
					c2.278-0.778,4.812-0.834,7.197-0.667c1.456,0.102,2.904,0.33,4.32,0.682c1.131,0.281,2.749,0.513,3.485,1.5
					c0.108,0.144,0.196,0.306,0.33,0.426c0.295,0.265,0.732,0.272,1.128,0.304c0.856,0.071,1.709,0.342,2.387,0.869
					c0.678,0.527,1.165,1.324,1.223,2.181c0.06,0.91-0.361,1.801-0.967,2.482C319.459,393.86,318.783,394.324,318.09,394.75z"/>
				<path style="fill:#455A64;" d="M308.661,399.334c2.961-1.853,2.941-6.236-1.912-7.328c-4.853-1.091-8.658-0.418-13.529,2.589
					c-4.871,3.007-6.936,3.804-12.013,5.699c-5.077,1.896-4.877,3.468-4.877,3.468s-1.138-3.984,0.228-6.122
					c1.104-1.729,1.928-1.975,7.354-3.737c5.426-1.762,7.394-2.984,12.306-6.592c3.915-2.876,10.476-4.632,18.829-1.62
					c10.513,3.791,5.896,7.594,3.71,8.971C315.074,396.98,308.661,399.334,308.661,399.334z"/>
			</g>
			<g>
				<path style="fill:#37474F;" d="M216.293,381.739c4.774,3.349,15.558,7.559,23.588,11.766
					c13.385,7.013,26.039,13.657,31.898,20.227c5.082,5.698,9.845,16.407-4.404,20.379c-8.113,2.261-28.019-0.693-36.995-4.373
					l-20.927-12.892L216.293,381.739z"/>
				<g>
					<path style="fill:#FFA8A7;" d="M338.887,377.482c-0.092,0.041-0.184,0.081-0.276,0.121c-2.033,0.881-4.128,1.621-6.263,2.213
						c-1.938,0.537-3.853,0.909-5.65,1.918c-8.903,4.999-14.909,6.355-25.151,17.13c0,0-11.116-11.402-12.154-12.445
						c0,0,6.957-3.056,7-6.169c0.025-1.81,0.832-3.96,2.193-5.193c1.298-1.175,3.188-1.664,5.843-2.207
						c2.271-0.465,4.575-0.858,6.754-1.672c1.126-0.421,2.208-0.952,3.232-1.581c2.738-1.682,5.482-2.965,8.662-3.596
						c2.362-0.468,4.88-0.187,7.222,0.297c1.43,0.295,2.834,0.713,4.191,1.25c1.083,0.429,2.657,0.874,3.254,1.951
						c0.088,0.158,0.154,0.329,0.271,0.466c0.257,0.302,0.689,0.367,1.077,0.452c0.839,0.184,1.648,0.566,2.25,1.178
						c0.602,0.612,0.979,1.467,0.921,2.324c-0.061,0.91-0.597,1.736-1.288,2.331C340.362,376.781,339.63,377.151,338.887,377.482z"
						/>
					<path style="fill:#455A64;" d="M328.932,380.77c3.182-1.443,3.745-5.79-0.92-7.517c-4.665-1.727-8.525-1.566-13.753,0.766
						c-5.228,2.333-7.38,2.847-12.664,4.05c-5.284,1.203-5.295,2.788-5.295,2.788s-0.598-4.1,1.041-6.038
						c1.324-1.566,2.174-1.701,7.786-2.726c5.612-1.025,7.726-1.974,13.073-4.896c4.263-2.329,10.999-3.197,18.877,0.9
						c9.915,5.156,4.833,8.311,2.483,9.385C335.601,379.291,328.932,380.77,328.932,380.77z"/>
				</g>
				<path style="fill:#37474F;" d="M273.415,431.312c8.236-5.821,29.505-33.384,29.505-33.384c0.814-3.71-1.361-7.103-3.922-9.53
					c-4.281-4.056-7.829-3.244-7.829-3.244c-2.995,1.943-5.936,3.099-13.727,6.781c-6.534,3.088-16.88,8.326-20.971,15.475
					C252.381,414.559,273.415,431.312,273.415,431.312z"/>
				<path style="fill:#263238;" d="M258.995,403.992c7.549,3.925,10.389,8.018,10.389,8.018s-2.663-7.289-8.798-9.629
					C260.066,402.864,259.475,403.416,258.995,403.992z"/>
			</g>
			<g>
				<path style="fill:#455A64;" d="M160.591,399.961c-1.094,19.917,3.635,30.789,17.301,38.679
					c16.855,9.731,24.765,12.455,35.551,15.299c11.363,2.996,26.063,1.787,32.359-4.349c5.853-5.704,0.914-11.942-0.717-15.488
					c-3.998-8.692-34.356-23.484-34.356-23.484c4.005-10.734,6.33-18.682,5.179-27.422L160.591,399.961z"/>
				<path style="fill:#455A64;" d="M243.205,451.58c7.491-4.44,21.388-16.942,21.388-16.942c-3.449-0.062-5.572-1.706-10.021-4.508
					c-5.292-3.333-8.542-4.689-16.628-3.43C237.944,426.701,237.106,455.195,243.205,451.58z"/>
				<path style="fill:#37474F;" d="M237.944,426.701c2.187,1.459,3.458,2.483,5.195,4.759c-1.043-3.129-1.982-4.137-4.172-5.702
					L237.944,426.701z"/>
				<path style="fill:#37474F;" d="M216.8,413.731c-7.201-4.158-18.157-4.149-26.612-1.298c1.974-3.37,12.47-6.123,22.416-4.346
					C212.604,408.087,215.43,410.178,216.8,413.731z"/>
				<path style="fill:#37474F;" d="M165.993,401.422l1.322-0.13c0.243,13.931,4.041,23.965,10.498,30.256
					c5.354-3.701,4.43-9.871,2.653-14.463c-2.757-7.126-3.368-14.374-3.393-14.68l1.323-0.106c0.007,0.073,0.625,7.366,3.31,14.306
					c2.694,6.967,1.655,12.56-2.895,15.871c0.705,0.639,1.436,1.273,2.226,1.902c7.668,6.107,26.745,17.923,46.323,21.103
					c-2.727,0.077-5.507-0.076-8.221-0.439c-16.865-4.611-32.218-14.28-38.929-19.626
					C171.042,428.116,166.509,419.353,165.993,401.422z"/>
			</g>
		</g>
		<g id="Top_1_">
			<path style="fill:#37474F;" d="M170.047,279.456c-4.063,0.47-6.379,5.419-7.026,12.53c-0.779,8.559-5.183,11.175-6.281,15.908
				c-1.714,7.395,1.301,10.319,5.923,11.923c-1.593-4.221,0.679-6.367,0.679-6.367s-1.391,5.216,2.204,7.73
				c3.595,2.514,9.826,2.559,12.714,2.036c5.443-0.984,7.376-2.818,7.376-2.818s3.623,3.748,10.955,2.479
				c7.332-1.269,11.18-8.589,7.699-13.656c-3.481-5.067-12.878-29.766-12.878-29.766H170.047z"/>
			<path style="fill:#FFA8A7;" d="M199.277,323.482c9.665,1.523,13.607,1.422,21.199,16.333c5.342,10.492,16.909,32.25,16.909,32.25
				l-14.766,10.702c-5.386-9.706-11.219-19.312-19.983-33.543L199.277,323.482z"/>
			<g>
				<path style="fill:#37474F;" d="M212.555,358.536c5.51-8.646,3.192-14.876,1.303-18.503c-3.785-7.267-14.583-16.55-14.583-16.55
					s-7.011-1.887-15.823-1.741c-6.245,0.104-11.227,1.206-14.565,2.172l-6.887,2.898c3.215,3.998,4.71,11.254,4.472,15.88
					c-0.568,11.008-4.082,13.822-4.082,13.822s1.454,11.538,2.154,14.283c0.474,1.863-0.548,7.199-1.537,10.715
					c-1.899,6.754-3.283,15.411-3.497,17.511c-0.104,1.023,0.502,1.991,1.476,2.322c19.852,6.762,49.119-5.293,57.755-18.148
					c-0.59-3.335-4.804-8.839-5.539-12.4C212.333,366.598,212.107,364.91,212.555,358.536z"/>
				<path style="fill:#263238;" d="M196.288,361.567c0,0-4.238,5.289-13.358,3.765c-9.119-1.525-10.911-8.407-10.911-8.407
					s-0.545,8.854,10.356,10.636C193.111,369.316,196.288,361.567,196.288,361.567z"/>
			</g>
			<g id="XMLID_1_">
				<g id="XMLID_6_">
					<path style="fill:#37474F;" d="M174.534,313.45c0,0,29.692-14.956,31.384-15.995c1.524-0.937,3.021-1.7,3.97-3.214
						c1.875-2.994,1.818-6.181,0.843-9.581c-0.504-1.758-1.564-3.53-2.645-5.006c-2.87-3.922-5.302-5.718-9.854-7.421
						c-7.565-2.83-17.103-2.273-23.569,2.576c-5.709,4.282-8.531,10.597-8.669,15.61
						C165.652,302.888,174.012,309.285,174.534,313.45z"/>
					<g id="XMLID_10_">
						<path id="XMLID_12_" style="fill:#FFA8A7;" d="M202.669,282.99c1.943,1.031,5.58,8.937,3.587,22.344
							c-1.555,10.461-5.656,12.43-7.742,12.921c-2.086,0.49-5.184,0.324-7.735-0.185v4.085c-3.242,4.109-8.897,3.856-16.708,0.552
							c-0.48-4.952-0.291-10.324,0.385-15.046c0,0-3.809,1.734-6.482-1.288c-2.128-2.407-3.169-6.633-0.912-10.171
							c1.174-1.84,3.407-2.4,5.101-2.245c2.177,0.2,4.155,1.742,4.314,3.835c0.247,2.293,2.403,2.96,3.67,1.297
							c1.227-1.611,1.996-4.138,1.962-7.105C189.806,292.854,200.178,289.754,202.669,282.99z"/>
						<path style="fill:#B16668;" d="M193.777,309.862c-0.198,0.793-1,1.275-1.793,1.078c-0.793-0.197-1.275-1-1.078-1.793
							c0.198-0.793,0.792-0.441,1.585-0.244C193.284,309.101,193.974,309.07,193.777,309.862z"/>
						<path id="XMLID_11_" style="fill:#F28F8F;" d="M190.779,318.071c-7.469-1.882-13.05-6.102-13.703-9.429
							c0,0-0.457,3.142,1.462,5.627c2.7,3.497,12.241,6.912,12.241,6.912V318.071z"/>
					</g>
					<g id="XMLID_7_">
						<path id="XMLID_9_" style="fill:#263238;" d="M192.024,298.177c0.293,0.952-0.213,1.95-1.13,2.23
							c-0.917,0.279-1.898-0.266-2.191-1.218c-0.293-0.952,0.175-1.657,1.092-1.937
							C190.712,296.972,191.732,297.225,192.024,298.177z"/>
						<path id="XMLID_8_" style="fill:#263238;" d="M203.982,299.141c-0.138,0.987-1.02,1.676-1.969,1.54
							c-0.949-0.136-1.606-1.046-1.468-2.032c0.139-0.986,0.994-1.328,1.943-1.191C203.437,297.594,204.121,298.155,203.982,299.141
							z"/>
					</g>
				</g>
				<g>
					<g id="XMLID_4_">
						<path id="XMLID_5_" style="fill:#F28F8F;" d="M195.081,296.616l0.204,9.705l5.847-1.119
							C200.553,302.828,196.724,297.632,195.081,296.616z"/>
					</g>
				</g>
				<g>
					<path id="XMLID_3_" style="fill:#263238;" d="M204.548,295.715l-3.646-1.634c0.417-1.032,1.571-1.502,2.578-1.051
						C204.486,293.481,204.964,294.683,204.548,295.715z"/>
					<path id="XMLID_2_" style="fill:#263238;" d="M187.499,295.527l3.789-1.268c-0.313-1.068-1.415-1.65-2.462-1.3
						C187.78,293.31,187.186,294.459,187.499,295.527z"/>
				</g>
			</g>
			<g>
				<g>
					<g>
						<g>
							<path style="fill:#BA68C8;" d="M237.388,354.286c0,0-0.173-1.593,1.876-3.23c2.048-1.637,4.746-2.992,5.491-6.894
								l2.967,1.562l-4.566,8.403L237.388,354.286z"/>
							<path style="opacity:0.75;fill:#FFFFFF;" d="M237.388,354.286c0,0-0.173-1.593,1.876-3.23
								c2.048-1.637,4.746-2.992,5.491-6.894l2.967,1.562l-4.566,8.403L237.388,354.286z"/>
						</g>
						<g>
							<path style="fill:#BA68C8;" d="M237.388,354.286c0,0-3.235-1.463-10.12,0.24c-6.885,1.702-12.49,3.781-25.838,4.009
								l3.538,1.863l34.555-3.363L237.388,354.286z"/>
							<path style="opacity:0.75;fill:#FFFFFF;" d="M237.388,354.286c0,0-3.235-1.463-10.12,0.24
								c-6.885,1.702-12.49,3.781-25.838,4.009l3.538,1.863l34.555-3.363L237.388,354.286z"/>
							<polygon style="fill:#BA68C8;" points="201.429,358.534 190.601,398.866 194.139,400.729 204.967,360.398 							"/>
							<polygon style="opacity:0.8;fill:#FFFFFF;" points="201.429,358.534 190.601,398.866 194.139,400.729 204.967,360.398 
															"/>
							<polygon style="opacity:0.1;" points="201.429,358.534 190.601,398.866 194.139,400.729 204.967,360.398 							"/>
						</g>
						<g style="opacity:0.1;">
							<path d="M244.834,346.302c-0.288,0.842-0.75,1.627-1.34,2.3c-0.585,0.678-1.253,1.275-1.916,1.869
								c-0.664,0.597-1.358,1.153-1.88,1.848c-0.264,0.344-0.484,0.718-0.644,1.111c-0.152,0.383-0.249,0.833-0.203,1.187
								l-0.419,0.078c-0.045-0.536,0.097-0.975,0.279-1.41c0.193-0.424,0.445-0.814,0.737-1.164c0.581-0.71,1.313-1.247,1.992-1.811
								c0.685-0.566,1.371-1.132,1.975-1.778C244.023,347.889,244.512,347.133,244.834,346.302z"/>
							<path d="M244.365,348.571c-0.254,0.522-0.634,0.971-1.011,1.407c-0.382,0.436-0.776,0.858-1.147,1.297
								c-0.37,0.438-0.719,0.894-0.992,1.385c-0.273,0.489-0.463,1.021-0.488,1.559l-0.425-0.035
								c0.068-0.619,0.318-1.19,0.638-1.688c0.321-0.501,0.708-0.943,1.109-1.364c0.401-0.421,0.821-0.818,1.227-1.227
								C243.678,349.495,244.08,349.075,244.365,348.571z"/>
							<path d="M214.777,358.306c1.891-0.242,3.765-0.599,5.616-1.051c1.852-0.446,3.681-0.98,5.52-1.487
								c1.836-0.537,3.743-0.836,5.654-0.962c0.957-0.059,1.919-0.074,2.882,0.003c0.482,0.033,0.963,0.108,1.442,0.215
								c0.473,0.131,0.961,0.272,1.383,0.621l-0.283,0.319c-0.315-0.273-0.761-0.425-1.198-0.552
								c-0.449-0.109-0.91-0.19-1.379-0.231c-0.935-0.093-1.885-0.096-2.83-0.055c-1.894,0.09-3.781,0.349-5.617,0.849
								c-1.845,0.471-3.687,0.972-5.55,1.384C218.556,357.777,216.672,358.099,214.777,358.306z"/>
							<path d="M223.928,357.778c1.068-0.186,2.12-0.451,3.176-0.695c1.056-0.246,2.116-0.482,3.188-0.668
								c1.071-0.186,2.156-0.326,3.252-0.343c1.093-0.015,2.213,0.08,3.272,0.472l-0.158,0.396
								c-0.969-0.396-2.046-0.529-3.114-0.549c-1.072-0.018-2.15,0.084-3.22,0.234c-1.071,0.15-2.135,0.351-3.198,0.562
								C226.064,357.396,225.002,357.627,223.928,357.778z"/>
						</g>
					</g>
					<g>
						<polygon style="fill:#BA68C8;" points="247.652,343.729 242.321,353.688 230.704,396.932 232.473,397.863 237.709,385.711 
							249.412,344.657 						"/>
						<polygon style="opacity:0.2;" points="244.09,354.619 249.412,344.657 237.709,385.711 232.473,397.863 						"/>
					</g>
					<g>
						<polygon style="fill:#BA68C8;" points="236.756,357.196 202.686,360.719 191.069,403.962 192.838,404.895 226.909,401.372 
							238.526,358.128 						"/>
						<polygon style="opacity:0.2;" points="204.455,361.65 192.838,404.895 226.909,401.372 238.526,358.128 						"/>
						<polygon style="opacity:0.35;" points="202.686,360.719 204.455,361.65 192.838,404.895 191.069,403.962 						"/>
					</g>
					<g>
						<path style="fill:#BA68C8;" d="M238.526,358.128l5.564-3.508l-11.617,43.244c-0.794,2.341-2.706,3.446-5.564,3.509
							L238.526,358.128z"/>
						<path style="opacity:0.35;" d="M238.526,358.128l5.564-3.508l-11.617,43.244c-0.898,2.478-2.871,3.486-5.564,3.509
							L238.526,358.128z"/>
						<path style="fill:#455A64;" d="M242.124,353.582c-1.083-0.577-3.2-0.265-4.736,0.703c-1.537,0.969-1.905,2.221-0.822,2.798
							l1.96,1.044l5.564-3.508c0,0-0.775-0.403-1.769-0.932C242.258,353.654,242.188,353.616,242.124,353.582z"/>
						<path style="fill:#BA68C8;" d="M242.321,353.688c-0.273,1.651-2.328,2.759-5.565,3.508l1.769,0.932
							c2.788-0.432,4.598-1.637,5.564-3.508L242.321,353.688z"/>
					</g>
				</g>
				<path style="fill:#FFA8A7;" d="M162.969,326.454c-8.417,2.683-13.081,5.485-14.455,14.971
					c-1.546,10.668-2.833,21.23-3.278,38.921c-0.105,4.189-0.446,9.533,8.906,11.743c12,2.835,29.534,4.387,33.917,4.752
					c2.803,0.233,8.98,0.778,11.155,0.517c6.825-0.821,10.461-4.889,12.6-7.012c1.183-1.173,2.337-2.608,2.313-4.274
					c-0.007-0.535-0.138-1.08,0-1.597c0.137-0.515,0.521-0.923,0.766-1.396c0.272-0.524,0.371-1.136,0.277-1.719
					c-0.084-0.526-0.319-1.03-0.307-1.562c0.025-1.072,1.006-1.851,1.444-2.83c0.066-0.146,0.12-0.305,0.101-0.464
					c-0.043-0.353-0.419-0.563-0.765-0.643c-1.406-0.326-3.387,0.284-4.618,1.038c-4.309,2.639-6.775,5.908-12.828,6.084
					c-1.448,0.042-3.193-0.541-2.817-1.941l0.741-2.76c-3.459,0.706-5.322,4.112-8.171,4.701
					c-2.525,0.522-23.028-6.317-23.028-6.317l3.018-24.026C167.939,352.64,171.288,333.108,162.969,326.454z"/>
				<path style="fill:#FFA8A7;" d="M242.606,368.537c-0.403,1.412-1.583,3.224-2.25,4.398c-0.641,1.127-0.546,2.439,0.209,2.763
					l-2.039,7.158c0,0,1.005,0.109,3.087-2.32c2.082-2.429,3.507-6.963,3.902-9.415c0.395-2.453,0.682-6.838-1.398-7.883
					L242.606,368.537z"/>
			</g>
			<g>
				<path style="fill:#455A64;" d="M173.818,315.602c-0.01,0.674-0.014,1.399-0.014,1.399s1.267,2.056,5.352,3.552
					c6.128,2.243,10.749,1.18,11.623-0.358v-0.973c0,0,1.08,0.076,1.486,0.972c0.407,0.896,1.076,2.453,2.036,3.538
					c0.96,1.086-2.353,6.263-9.498,6.263c-7.455,0-14.177-5.533-16.796-5.712l-0.673,0.283c0,0-0.02-0.901,1.472-2.388
					C170.698,320.291,170.909,315.394,173.818,315.602z"/>
				<path style="fill:#37474F;" d="M172.74,318.414c0.34-0.539,0.764-0.888,1.29-1.113c-0.116-0.141-0.177-0.225-0.201-0.262
					c-0.41,0.166-0.787,0.45-1.043,0.763c-0.645,0.787-0.881,1.807-1.169,2.759c-0.158,0.522-0.332,1.046-0.613,1.518
					c-0.281,0.473-0.682,0.849-1.04,1.262c-0.309,0.358-0.585,0.807-0.689,1.28c0.081,0.031,0.168,0.07,0.252,0.105
					c0.235-0.629,0.756-1.135,1.195-1.649c0.542-0.636,0.863-1.365,1.102-2.159C172.08,320.071,172.262,319.172,172.74,318.414z
					 M177.738,319.963c-0.207-0.098-0.377-0.197-0.565-0.295c-0.318,0.188-0.586,0.517-0.737,0.833
					c-0.214,0.448-0.269,0.952-0.37,1.433c-0.121,0.576-0.343,1.054-0.721,1.507c-0.585,0.701-1.159,1.322-1.397,2.231
					c-0.099,0.377-0.13,0.773-0.107,1.166c0.095,0.047,0.192,0.094,0.289,0.141c-0.012-0.492,0.052-0.983,0.225-1.46
					c0.278-0.765,0.857-1.307,1.347-1.935c0.49-0.629,0.624-1.322,0.801-2.082C176.669,320.776,177.05,320.164,177.738,319.963z
					 M179.869,320.794c-0.186-0.062-0.372-0.122-0.561-0.19c-0.308,0.225-0.555,0.564-0.706,0.895
					c-0.406,0.89-0.305,1.94-0.79,2.799c-0.219,0.388-0.534,0.712-0.768,1.091c-0.209,0.34-0.358,0.715-0.446,1.104
					c-0.101,0.444-0.146,1.063-0.034,1.597c0.114,0.048,0.224,0.098,0.339,0.145c-0.044-0.186-0.087-0.371-0.105-0.565
					c-0.039-0.424,0.002-0.855,0.13-1.263c0.244-0.777,0.864-1.289,1.209-2.006c0.342-0.709,0.364-1.504,0.597-2.246
					C178.934,321.52,179.314,321.083,179.869,320.794z M175.715,318.802c-0.111-0.077-0.197-0.148-0.297-0.223
					c-0.95,0.856-1.183,2.727-1.845,3.676c-0.588,0.843-1.475,1.372-1.908,2.338c-0.135,0.3-0.224,0.647-0.286,1.003
					c0.096,0.048,0.191,0.095,0.29,0.146c0.053-0.407,0.161-0.809,0.388-1.209c0.45-0.793,1.259-1.286,1.759-2.04
					C174.502,321.459,174.678,319.61,175.715,318.802z M187.899,325.674c-0.149-0.566-0.016-1.171-0.007-1.748
					c0.007-0.461-0.023-0.926-0.145-1.373c-0.079-0.288-0.204-0.563-0.36-0.815c-0.09,0.012-0.179,0.023-0.271,0.033
					c0.282,0.405,0.462,0.872,0.52,1.401c0.088,0.804-0.147,1.633-0.007,2.425c0.059,0.332,0.203,0.638,0.303,0.958
					c0.147,0.47,0.218,0.965,0.213,1.458c-0.004,0.403-0.057,0.806-0.158,1.196c-0.039,0.152-0.102,0.294-0.159,0.439
					c0.118-0.027,0.237-0.052,0.351-0.082c0.108-0.403,0.161-0.827,0.188-1.148c0.039-0.459,0.019-0.927-0.061-1.38
					C188.219,326.564,188.02,326.136,187.899,325.674z M193.614,324.289c-0.391-0.697-1.076-1.083-1.598-1.66
					c-0.616-0.681-0.409-1.66-0.956-2.373c-0.076-0.099-0.175-0.193-0.281-0.282v0.221c-0.033,0.059-0.082,0.115-0.126,0.172
					c0.227,0.214,0.414,0.463,0.499,0.768c0.189,0.677,0.228,1.287,0.726,1.827c0.453,0.491,1.061,0.828,1.44,1.39
					c0.326,0.482,0.433,0.997,0.493,1.536c0.079-0.117,0.153-0.232,0.218-0.345C193.964,325.098,193.82,324.658,193.614,324.289z
					 M190.742,324.656c-0.357-0.453-0.566-0.885-0.644-1.463c-0.057-0.423-0.077-0.859-0.228-1.263
					c-0.102-0.272-0.274-0.497-0.473-0.692c-0.078,0.033-0.164,0.062-0.247,0.092c0.27,0.259,0.474,0.586,0.572,0.964
					c0.184,0.71,0.103,1.453,0.474,2.112c0.363,0.644,0.92,1.118,1.15,1.843c0.212,0.671,0.145,1.315-0.011,1.963
					c0.123-0.078,0.24-0.16,0.356-0.241c0.086-0.393,0.091-0.811,0.045-1.198C191.637,325.943,191.249,325.299,190.742,324.656z
					 M183.828,323.459c-0.183,0.957,0,1.936-0.347,2.864c-0.282,0.753-0.633,1.433-0.672,2.253c-0.02,0.406,0.02,0.867,0.136,1.297
					c0.101,0.012,0.2,0.029,0.301,0.039c-0.168-0.577-0.262-1.142-0.122-1.786c0.162-0.747,0.634-1.378,0.808-2.12
					c0.17-0.726,0.064-1.479,0.18-2.212c0.116-0.727,0.43-1.337,0.714-1.993c-0.109-0.007-0.216-0.011-0.328-0.021
					C184.141,322.263,183.934,322.902,183.828,323.459z M181.021,322.479c-0.324,1.014-0.225,2.078-0.841,2.998
					c-0.499,0.746-1.094,1.377-1.284,2.284c-0.074,0.354-0.102,0.764-0.083,1.172c0.101,0.033,0.201,0.068,0.303,0.1
					c-0.054-0.428-0.069-0.857,0.049-1.312c0.224-0.865,0.896-1.458,1.333-2.207c0.403-0.69,0.472-1.456,0.603-2.228
					c0.07-0.414,0.174-0.813,0.378-1.183c0.176-0.319,0.412-0.493,0.669-0.683c-0.145-0.031-0.293-0.065-0.441-0.101
					C181.372,321.634,181.126,322.151,181.021,322.479z"/>
			</g>
		</g>
	</g>
</g>
</svg>
